<svg width="1920" height="1024" viewBox="0 0 1920 1024" fill="none" xmlns="http://www.w3.org/2000/svg">
<g opacity="0.3">
<line x1="93.095" y1="2.18557e-08" x2="93.0949" y2="1024" stroke="#FCFCFC" stroke-dasharray="2 2"/>
<line x1="200.955" y1="2.18557e-08" x2="200.955" y2="1024" stroke="#FCFCFC" stroke-dasharray="2 2"/>
<line x1="308.815" y1="2.18557e-08" x2="308.815" y2="1024" stroke="#FCFCFC" stroke-dasharray="2 2"/>
<line x1="416.675" y1="2.18557e-08" x2="416.675" y2="1024" stroke="#FCFCFC" stroke-dasharray="2 2"/>
<line x1="524.535" y1="2.18557e-08" x2="524.535" y2="1024" stroke="#FCFCFC" stroke-dasharray="2 2"/>
<line x1="632.395" y1="2.18557e-08" x2="632.395" y2="1024" stroke="#FCFCFC" stroke-dasharray="2 2"/>
<line x1="740.255" y1="2.18557e-08" x2="740.255" y2="1024" stroke="#FCFCFC" stroke-dasharray="2 2"/>
<line x1="848.115" y1="2.18557e-08" x2="848.115" y2="1024" stroke="#FCFCFC" stroke-dasharray="2 2"/>
<line x1="955.975" y1="2.18557e-08" x2="955.975" y2="1024" stroke="#FCFCFC" stroke-dasharray="2 2"/>
<line x1="1063.83" y1="2.18557e-08" x2="1063.83" y2="1024" stroke="#FCFCFC" stroke-dasharray="2 2"/>
<line x1="1171.69" y1="2.18557e-08" x2="1171.69" y2="1024" stroke="#FCFCFC" stroke-dasharray="2 2"/>
<line x1="1279.55" y1="2.18557e-08" x2="1279.55" y2="1024" stroke="#FCFCFC" stroke-dasharray="2 2"/>
<line x1="1387.41" y1="2.18557e-08" x2="1387.41" y2="1024" stroke="#FCFCFC" stroke-dasharray="2 2"/>
<line x1="1495.27" y1="2.18557e-08" x2="1495.27" y2="1024" stroke="#FCFCFC" stroke-dasharray="2 2"/>
<line x1="1603.13" y1="2.18557e-08" x2="1603.13" y2="1024" stroke="#FCFCFC" stroke-dasharray="2 2"/>
<line x1="1710.99" y1="2.18557e-08" x2="1710.99" y2="1024" stroke="#FCFCFC" stroke-dasharray="2 2"/>
<line x1="1818.85" y1="2.18557e-08" x2="1818.85" y2="1024" stroke="#FCFCFC" stroke-dasharray="2 2"/>
<line y1="44.8218" x2="1926.21" y2="44.8218" stroke="#FCFCFC" stroke-dasharray="2 2"/>
<line y1="150.901" x2="1926.21" y2="150.901" stroke="#FCFCFC" stroke-dasharray="2 2"/>
<line y1="256.98" x2="1926.21" y2="256.98" stroke="#FCFCFC" stroke-dasharray="2 2"/>
<line y1="363.06" x2="1926.21" y2="363.06" stroke="#FCFCFC" stroke-dasharray="2 2"/>
<line y1="469.139" x2="1926.21" y2="469.139" stroke="#FCFCFC" stroke-dasharray="2 2"/>
<line y1="575.218" x2="1926.21" y2="575.218" stroke="#FCFCFC" stroke-dasharray="2 2"/>
<line y1="681.297" x2="1926.21" y2="681.297" stroke="#FCFCFC" stroke-dasharray="2 2"/>
<line y1="787.377" x2="1926.21" y2="787.377" stroke="#FCFCFC" stroke-dasharray="2 2"/>
<line y1="893.456" x2="1926.21" y2="893.456" stroke="#FCFCFC" stroke-dasharray="2 2"/>
<line y1="999.535" x2="1926.21" y2="999.535" stroke="#FCFCFC" stroke-dasharray="2 2"/>
</g>
</svg>
