<svg width="25" height="24" viewBox="0 0 25 24" fill="none" xmlns="http://www.w3.org/2000/svg">
<path d="M11.5 4H4.5C3.96957 4 3.46086 4.21071 3.08579 4.58579C2.71071 4.96086 2.5 5.46957 2.5 6V20C2.5 20.5304 2.71071 21.0391 3.08579 21.4142C3.46086 21.7893 3.96957 22 4.5 22H18.5C19.0304 22 19.5391 21.7893 19.9142 21.4142C20.2893 21.0391 20.5 20.5304 20.5 20V13" stroke="#2B2B2B" stroke-width="1.5" stroke-linecap="round" stroke-linejoin="round"/>
<path d="M19 2.50001C19.3978 2.10219 19.9374 1.87869 20.5 1.87869C21.0626 1.87869 21.6022 2.10219 22 2.50001C22.3978 2.89784 22.6213 3.4374 22.6213 4.00001C22.6213 4.56262 22.3978 5.10219 22 5.50001L12.5 15L8.5 16L9.5 12L19 2.50001Z" stroke="#2B2B2B" stroke-width="1.5" stroke-linecap="round" stroke-linejoin="round"/>
</svg>
