<svg width="25" height="25" viewBox="0 0 25 25" fill="none" xmlns="http://www.w3.org/2000/svg">
<path d="M13.3711 10.7195C13.3685 10.3053 13.0306 9.97162 12.6164 9.9742C12.2022 9.97677 11.8685 10.3146 11.8711 10.7288L13.3711 10.7195ZM12.1461 19.6272C12.4408 19.9183 12.9156 19.9153 13.2067 19.6206L17.9499 14.8181C18.241 14.5234 18.238 14.0485 17.9433 13.7575C17.6486 13.4664 17.1738 13.4693 16.8827 13.764L12.6665 18.033L8.39758 13.8168C8.10287 13.5257 7.62801 13.5286 7.33694 13.8233C7.04587 14.118 7.04882 14.5929 7.34353 14.884L12.1461 19.6272ZM11.8711 10.7288L11.9231 19.0983L13.4231 19.0889L13.3711 10.7195L11.8711 10.7288Z" fill="#2B2B2B"/>
<path d="M20.8127 21.9372H12.7894H4.19119C3.81053 21.9372 3.50195 21.6286 3.50195 21.248V7.98764C3.50195 7.60698 3.81053 7.2984 4.19119 7.2984H20.8127C21.1934 7.2984 21.502 7.60698 21.502 7.98764V21.248C21.502 21.6286 21.1934 21.9372 20.8127 21.9372Z" stroke="#2B2B2B" stroke-width="1.5"/>
<path d="M3.50977 7.77845L5.56363 3.86371C5.68267 3.63682 5.91775 3.49469 6.17397 3.49469H18.9489C19.212 3.49469 19.4522 3.64453 19.5679 3.88088L21.4593 7.74438" stroke="#2B2B2B" stroke-width="1.5" stroke-linecap="round"/>
</svg>
