<svg width="18" height="19" viewBox="0 0 18 19" fill="none" xmlns="http://www.w3.org/2000/svg">
<path d="M14.25 2.40686H3.75C2.92157 2.40686 2.25 3.07843 2.25 3.90686V14.4069C2.25 15.2353 2.92157 15.9069 3.75 15.9069H14.25C15.0784 15.9069 15.75 15.2353 15.75 14.4069V3.90686C15.75 3.07843 15.0784 2.40686 14.25 2.40686Z" stroke="#717171" stroke-width="1.5" stroke-linecap="round" stroke-linejoin="round"/>
<path d="M6.75 8.40686C7.57843 8.40686 8.25 7.73529 8.25 6.90686C8.25 6.07843 7.57843 5.40686 6.75 5.40686C5.92157 5.40686 5.25 6.07843 5.25 6.90686C5.25 7.73529 5.92157 8.40686 6.75 8.40686Z" stroke="#717171" stroke-width="1.5" stroke-linecap="round" stroke-linejoin="round"/>
<path d="M15.75 11.4068L13.4355 9.09235C13.1542 8.81114 12.7727 8.65317 12.375 8.65317C11.9773 8.65317 11.5958 8.81114 11.3145 9.09235L4.5 15.9068" stroke="#717171" stroke-width="1.5" stroke-linecap="round" stroke-linejoin="round"/>
</svg>
