<svg width="140" height="41" viewBox="0 0 140 41" fill="none" xmlns="http://www.w3.org/2000/svg">
<path d="M46.7627 26.1704V10.6141H44.2118V26.1704H46.7627Z" fill="#2B2B2B"/>
<path d="M48.324 20.985C48.324 24.1632 50.4567 26.4213 53.6976 26.4213C56.9386 26.4213 59.0713 24.1632 59.0713 20.985C59.0713 17.8068 56.9386 15.5486 53.6976 15.5486C50.4567 15.5486 48.324 17.8068 48.324 20.985ZM50.8958 20.985C50.8958 19.1241 52.004 17.8277 53.6976 17.8277C55.3913 17.8277 56.4995 19.1241 56.4995 20.985C56.4995 22.825 55.3913 24.1423 53.6976 24.1423C52.004 24.1423 50.8958 22.825 50.8958 20.985Z" fill="#2B2B2B"/>
<path d="M59.9297 20.7759C59.9297 23.7868 61.8742 25.9613 64.7806 25.9613C66.286 25.9613 67.5824 25.355 68.2306 24.3513V26.1077C68.2306 27.8013 67.1642 28.9304 65.387 28.9304C63.7979 28.9304 62.7106 28.1568 62.5642 26.7977H59.9924C60.327 29.495 62.397 31.2513 65.2406 31.2513C68.586 31.2513 70.7188 29.0559 70.7188 25.6477V15.8413H68.4606L68.3142 17.2422C67.687 16.155 66.3906 15.5068 64.8642 15.5068C61.916 15.5068 59.9297 17.744 59.9297 20.7759ZM62.5224 20.7131C62.5224 18.9986 63.6097 17.744 65.2197 17.744C66.9761 17.744 68.147 19.0195 68.147 20.7131C68.147 22.4277 66.9761 23.745 65.2197 23.745C63.6306 23.745 62.5224 22.4486 62.5224 20.7131Z" fill="#2B2B2B"/>
<path d="M71.9805 20.9849C71.9805 24.1631 74.1132 26.4213 77.3541 26.4213C80.595 26.4213 82.7277 24.1631 82.7277 20.9849C82.7277 17.8068 80.595 15.5486 77.3541 15.5486C74.1132 15.5486 71.9805 17.8068 71.9805 20.9849ZM74.5523 20.9849C74.5523 19.124 75.6605 17.8277 77.3541 17.8277C79.0477 17.8277 80.1559 19.124 80.1559 20.9849C80.1559 22.8249 79.0477 24.1422 77.3541 24.1422C75.6605 24.1422 74.5523 22.8249 74.5523 20.9849Z" fill="#2B2B2B"/>
<path d="M85.4886 13.7295C86.325 13.7295 87.015 13.0604 87.015 12.2031C87.015 11.3668 86.325 10.6977 85.4886 10.6977C84.6314 10.6977 83.9832 11.3668 83.9832 12.2031C83.9832 13.0604 84.6314 13.7295 85.4886 13.7295ZM84.2132 26.1704H86.7641V15.8413H84.2132V26.1704Z" fill="#2B2B2B"/>
<path d="M88.9989 30.9586H91.4873V24.7486C92.1355 25.815 93.5364 26.4423 95.0837 26.4423C98.1364 26.4423 99.9555 24.1004 99.9137 20.8804C99.8509 17.6395 97.99 15.5277 95.0627 15.5277C93.4946 15.5277 92.0727 16.2177 91.4455 17.4095L91.2991 15.8413H88.9989V30.9586ZM91.5918 21.0059C91.5918 19.145 92.7209 17.8486 94.4982 17.8486C96.2755 17.8486 97.3418 19.1659 97.3418 21.0059C97.3418 22.8459 96.2755 24.1423 94.4982 24.1423C92.7209 24.1423 91.5918 22.8668 91.5918 21.0059Z" fill="#2B2B2B"/>
<path d="M100.561 23.0759C100.644 25.125 102.233 26.4423 104.701 26.4423C107.126 26.4423 108.778 25.1459 108.778 23.1386C108.778 21.6541 107.858 20.6504 106.164 20.2323L104.345 19.7932C103.571 19.5841 103.049 19.3123 103.049 18.6432C103.049 17.9323 103.613 17.4304 104.533 17.4304C105.495 17.4304 106.122 17.9741 106.122 18.8732H108.443C108.36 16.8241 106.833 15.5277 104.596 15.5277C102.38 15.5277 100.728 16.8241 100.728 18.7895C100.728 20.1277 101.501 21.2359 103.488 21.7586L105.286 22.2186C105.955 22.4068 106.373 22.7204 106.373 23.3059C106.373 24.1213 105.6 24.4977 104.659 24.4977C103.53 24.4977 102.881 23.975 102.881 23.0759H100.561Z" fill="#2B2B2B"/>
<path d="M114.07 26.4422C115.471 26.4422 116.809 25.794 117.415 24.8322L117.582 26.1704H119.966V15.8413H117.415V21.2568C117.415 23.1177 116.704 24.1631 115.032 24.1631C113.735 24.1631 112.836 23.5359 112.836 21.4031V15.8413H110.285V22.3022C110.285 24.7695 111.623 26.4422 114.07 26.4422Z" fill="#2B2B2B"/>
<path d="M124.768 26.1704V20.2323C124.768 18.5595 125.75 17.765 126.963 17.765C128.176 17.765 128.97 18.5386 128.97 20.0023V26.1704H131.459V20.2532C131.459 18.5595 132.42 17.765 133.633 17.765C134.867 17.765 135.661 18.5386 135.661 20.0023V26.1704H138.129V19.4168C138.129 17.0332 136.811 15.5277 134.302 15.5277C132.734 15.5277 131.5 16.2804 130.999 17.4932C130.434 16.2804 129.305 15.5277 127.59 15.5277C126.378 15.5277 125.29 16.0923 124.684 17.0123L124.559 15.8413H122.217V26.1704H124.768Z" fill="#2B2B2B"/>
<path d="M118.653 35.4013C119.033 35.4013 119.363 35.0813 119.363 34.7013C119.363 34.3113 119.033 33.9913 118.653 33.9913C118.263 33.9913 117.933 34.3113 117.933 34.7013C117.933 35.0813 118.263 35.4013 118.653 35.4013Z" fill="#FE6466"/>
<path d="M120.097 32.8213C120.097 34.3513 121.037 35.3813 122.407 35.3813C123.587 35.3813 124.487 34.6713 124.677 33.6113H123.777C123.607 34.2013 123.087 34.5513 122.467 34.5513C121.587 34.5513 121.027 33.8713 121.027 32.8113C121.027 31.7313 121.617 31.0713 122.487 31.0713C123.087 31.0713 123.607 31.3913 123.767 32.0213H124.667C124.507 30.9513 123.667 30.2313 122.497 30.2313C121.077 30.2313 120.097 31.2813 120.097 32.8213Z" fill="#FE6466"/>
<path d="M125.031 32.8113C125.031 34.2813 126.031 35.3813 127.531 35.3813C129.031 35.3813 130.031 34.2813 130.031 32.8113C130.031 31.3413 129.031 30.2413 127.531 30.2413C126.031 30.2413 125.031 31.3413 125.031 32.8113ZM125.981 32.8113C125.981 31.8113 126.591 31.0813 127.531 31.0813C128.471 31.0813 129.081 31.8113 129.081 32.8113C129.081 33.8113 128.471 34.5413 127.531 34.5413C126.591 34.5413 125.981 33.8113 125.981 32.8113Z" fill="#FE6466"/>
<path d="M131.774 35.2713V32.3313C131.774 31.5613 132.254 31.0613 132.954 31.0613C133.624 31.0613 134.044 31.4913 134.044 32.2613V35.2713H134.964V32.3413C134.964 31.5613 135.434 31.0613 136.144 31.0613C136.804 31.0613 137.224 31.4913 137.224 32.2613V35.2713H138.134V32.0613C138.134 30.9313 137.474 30.2413 136.354 30.2413C135.594 30.2413 135.004 30.6113 134.764 31.2113C134.514 30.6113 133.964 30.2413 133.164 30.2413C132.554 30.2413 132.014 30.5213 131.744 31.0013L131.674 30.3813H130.834V35.2713H131.774Z" fill="#FE6466"/>
<path fill-rule="evenodd" clip-rule="evenodd" d="M1.81818 21.1116L1.81993 20.9294L1.82355 20.7472L1.82904 20.5649L1.83639 20.3826L1.84563 20.2003L1.85673 20.0181L1.86971 19.8359L1.88456 19.6537L1.90129 19.4716L1.91989 19.2895L1.94036 19.1077L1.96269 18.9259L1.98691 18.7442L2.013 18.5628L2.04096 18.3815L2.07079 18.2005L2.10249 18.0196L2.13604 17.8391L2.17147 17.6587L2.20876 17.4786L2.24791 17.2988L2.28891 17.1193L2.33179 16.9402L2.37649 16.7614L2.42307 16.5831L2.47148 16.405L2.52174 16.2273L2.57384 16.0501L2.62778 15.8734L2.68354 15.6972L2.74114 15.5213L2.80057 15.346L2.86181 15.1711L2.92487 14.9969L2.98974 14.8231L3.05641 14.65L3.12489 14.4774L3.19517 14.3054L3.26723 14.1341L3.34108 13.9634L3.4167 13.7933L3.4941 13.624L3.57327 13.4553L3.65419 13.2873L3.73688 13.1201L3.8213 12.9536L3.90747 12.7879L3.99537 12.6229L4.08499 12.4588L4.17632 12.2954L4.26938 12.1329L4.36412 11.9712L4.46057 11.8104L4.55869 11.6505L4.6585 11.4915L4.75998 11.3334L4.86311 11.1763L4.9679 11.0201L5.07433 10.8649L5.18239 10.7106L5.29208 10.5573L5.40337 10.4051L5.51627 10.2539L5.63076 10.1038L5.74684 9.95469L5.86449 9.80664L5.98369 9.65973L6.10446 9.51393L6.22676 9.36926L6.35059 9.22572L6.47595 9.08335L6.6028 8.94216L6.73116 8.80215L6.861 8.66335L6.99231 8.52577L7.12509 8.38942L7.2593 8.25432L7.39496 8.12049L7.53204 7.98793L7.67053 7.85667L7.81042 7.72672L7.95169 7.59809L8.09434 7.47079L8.23835 7.34485L8.3837 7.22026L8.53039 7.09706L8.67839 6.97525L8.82769 6.85484L8.97829 6.73585L9.13018 6.61829L9.28327 6.50218L9.43772 6.38751L9.59336 6.27433L9.75018 6.16263L9.90818 6.05242L10.0674 5.94372L10.2278 5.83653L10.3894 5.73089L10.5521 5.62678L10.716 5.52423L10.8809 5.42325L11.047 5.32384L11.2141 5.22603L11.3823 5.12982L11.5515 5.03522L11.7218 4.94225L11.8931 4.8509L12.0654 4.76121L12.2386 4.67317L12.4129 4.58679L12.5881 4.50209L12.7643 4.41908L12.9413 4.33776L13.1193 4.25815L13.2981 4.18025L13.4778 4.10408L13.6584 4.02964L13.8397 3.95694L14.0219 3.88598L14.2049 3.8168L14.3886 3.74938L14.5732 3.68374L14.7584 3.61988L14.9444 3.5578L15.1311 3.49754L15.3184 3.43908L15.5065 3.38243L15.6953 3.32761L15.8845 3.27462L16.0745 3.22346L16.2651 3.17414L16.4562 3.12668L16.6478 3.08108L16.8401 3.03732L17.0328 2.99545L17.226 2.95544L17.4197 2.91731L17.6139 2.88108L17.8085 2.84672L18.0036 2.81427L18.1991 2.78371L18.3949 2.75506L18.5911 2.72832L18.7876 2.70349L18.9845 2.68058L19.1817 2.65958L19.3792 2.64053L19.5769 2.62339L19.7749 2.60818L19.9731 2.59492L21.0389 2.53406L21.0997 7.66921L21.1345 7.66881L21.2817 7.6686L21.4289 7.66984L21.5761 7.67252L21.7234 7.67666L21.8707 7.68224L22.0181 7.68926L22.1654 7.69774L22.3128 7.70768L22.4601 7.71905L22.6075 7.73189L22.7546 7.74618L22.9018 7.76192L23.0488 7.77911L23.1958 7.79776L23.3426 7.81786L23.4894 7.8394L23.6359 7.86241L23.7824 7.88687L23.9285 7.91277L24.0746 7.94012L24.2204 7.96892L24.366 7.99918L24.5114 8.03087L24.6565 8.064L24.8014 8.09858L24.946 8.13459L25.0903 8.17206L25.2342 8.21095L25.3778 8.25128L25.5212 8.29303L25.6641 8.33621L25.8066 8.38082L25.9488 8.42686L26.0906 8.47431L26.232 8.52318L26.3729 8.57346L26.5135 8.62514L26.6535 8.67824L26.793 8.73273L26.9321 8.78863L27.0706 8.84592L27.2086 8.90459L27.3462 8.96466L27.4832 9.0261L27.6195 9.08892L27.7554 9.1531L27.8906 9.21866L28.0253 9.28558L28.1593 9.35385L28.2926 9.42347L28.4254 9.49443L28.5574 9.56674L28.6888 9.64038L28.8195 9.71534L28.9495 9.79162L29.0788 9.86924L29.2074 9.94815L29.3352 10.0283L29.4622 10.1099L29.5884 10.1926L29.7139 10.2767L29.8386 10.3621L29.9624 10.4486L30.0855 10.5365L30.2077 10.6256L30.329 10.716L30.4495 10.8076L30.5691 10.9004L30.6878 10.9945L30.8055 11.0897L30.9225 11.1861L31.0384 11.2839L31.1534 11.3827L31.2674 11.4827L31.3805 11.5839L31.4925 11.6862L31.6036 11.7898L31.7137 11.8944L31.8228 12.0001L31.9308 12.1071L32.0378 12.2151L32.1437 12.3242L32.2486 12.4344L32.3524 12.5457L32.4551 12.6581L32.5566 12.7715L32.6571 12.886L32.7565 13.0015L32.8546 13.1181L32.9517 13.2356L33.0476 13.3542L33.1424 13.4738L33.2359 13.5943L33.3283 13.7159L33.4194 13.8384L33.5094 13.9619L33.5981 14.0863L33.6855 14.2117L33.7718 14.3379L33.8568 14.4651L33.9405 14.5932L34.023 14.7221L34.1041 14.852L34.184 14.9826L34.2625 15.1142L34.3398 15.2465L34.4157 15.3797L34.4904 15.5137L34.5636 15.6485L34.6355 15.7841L34.7061 15.9204L34.7753 16.0575L34.8431 16.1953L34.9095 16.334L34.9746 16.4732L35.0383 16.6132L35.1005 16.754L35.1614 16.8953L35.2207 17.0374L35.2787 17.1801L35.3353 17.3234L35.3904 17.4673L35.444 17.612L35.4962 17.7571L35.5469 17.9029L35.5962 18.0492L35.644 18.1961L35.6903 18.3434L35.7351 18.4913L35.7784 18.6398L35.8202 18.7887L35.8605 18.9382L35.8993 19.0881L35.9365 19.2383L35.9723 19.3892L36.0065 19.5403L36.0391 19.692L36.0703 19.8439L36.0998 19.9963L36.1278 20.1491L36.1544 20.3022L36.1793 20.4555L36.2026 20.6092L36.2244 20.7633L36.2446 20.9176L36.2633 21.0722L36.2804 21.2271L36.2958 21.3822L36.3097 21.5374L36.3221 21.693L36.3328 21.8487L36.3419 22.0046L36.3495 22.1606L36.3554 22.3169L36.3597 22.4732L36.3625 22.6296L36.3636 22.7861L36.3632 22.9428L36.3611 23.0995L36.3574 23.2563L36.3521 23.4131L36.3452 23.5699L36.3367 23.7267L36.3265 23.8835L36.3148 24.0403L36.3014 24.1971L36.2864 24.3538L36.2699 24.5104L36.2516 24.6669L36.2318 24.8233L36.2104 24.9796L36.1874 25.1358L36.1627 25.2918L36.1364 25.4476L36.1085 25.6032L36.0791 25.7587L36.048 25.914L36.0153 26.069L35.9809 26.2237L35.945 26.3782L35.9075 26.5324L35.8684 26.6863L35.8276 26.8399L35.7854 26.9932L35.7415 27.1461L35.696 27.2986L35.6489 27.4509L35.6002 27.6026L35.55 27.7541L35.4982 27.905L35.4447 28.0555L35.3898 28.2056L35.3333 28.3552L35.2752 28.5042L35.2155 28.6529L35.1544 28.801L35.0916 28.9485L35.0274 29.0956L34.9615 29.242L34.8942 29.3879L34.8253 29.5331L34.7549 29.6778L34.6829 29.8219L34.6095 29.9652L34.5345 30.1081L34.4582 30.2501L34.3802 30.3915L34.3008 30.5322L34.2199 30.6722L34.1375 30.8114L34.0537 30.9499L33.9684 31.0877L33.8816 31.2246L33.7934 31.3608L33.7039 31.4962L33.6128 31.6307L33.5204 31.7644L33.4265 31.8973L33.3312 32.0293L33.2344 32.1605L33.1364 32.2908L33.0369 32.4202L32.9361 32.5485L32.8339 32.6761L32.7304 32.8026L32.6255 32.9282L32.5192 33.0528L32.4116 33.1764L32.3027 33.2991L32.1925 33.4207L32.0811 33.5413L31.9684 33.6609L31.8543 33.7794L31.739 33.8968L31.6224 34.0132L31.5045 34.1284L31.3855 34.2426L31.2653 34.3557L31.1438 34.4676L31.0211 34.5784L30.8972 34.688L30.7722 34.7964L30.6459 34.9038L30.5185 35.0099L30.39 35.1147L30.2604 35.2184L30.1295 35.3209L29.9976 35.4221L29.8646 35.522L29.7305 35.6207L29.5954 35.7182L29.4592 35.8142L29.3219 35.9092L29.1836 36.0027L29.0444 36.0949L28.904 36.1858L28.7627 36.2754L28.6204 36.3636L28.4772 36.4505L28.3329 36.536L28.1877 36.6202L28.0417 36.7029L27.8946 36.7841L27.7468 36.8642L27.598 36.9426L27.4484 37.0197L27.2978 37.0954L27.1464 37.1696L26.9943 37.2423L26.8413 37.3137L26.6874 37.3835L26.5329 37.4519L26.3775 37.5187L26.2214 37.5841L26.0646 37.648L25.9071 37.7103L25.7488 37.7712L25.5898 37.8305L25.4302 37.8882L25.2698 37.9445L25.1089 37.9992L24.9474 38.0523L24.7851 38.1039L24.6223 38.1539L24.4589 38.2023L24.295 38.2491L24.1305 38.2944L23.9654 38.3382L23.7998 38.3801L23.6338 38.4206L23.4673 38.4595L23.3002 38.4967L23.1327 38.5323L22.9648 38.5663L22.7964 38.5987L22.6277 38.6294L22.4586 38.6584L22.2891 38.6859L22.1193 38.7117L21.949 38.7358L21.7785 38.7582L21.6077 38.7791L21.4365 38.7982L21.2652 38.8156L21.0935 38.8314L20.9217 38.8455L20.7496 38.858L20.5774 38.8687L20.4048 38.8778L20.2322 38.8852L20.0594 38.8908L19.8864 38.8948L19.7134 38.8971L19.5403 38.8977L19.3671 38.8966L19.1938 38.8938L19.0205 38.8893L18.8471 38.8831L18.6737 38.8752L18.5004 38.8656L18.3271 38.8542L18.1537 38.8412L17.9805 38.8265L17.8074 38.8101L17.6343 38.792L17.4614 38.7722L17.2885 38.7506L17.1158 38.7273L16.9434 38.7023L16.771 38.6757L16.5989 38.6473L16.427 38.6173L16.2553 38.5855L16.0839 38.5521L15.9127 38.517L15.7419 38.4801L15.5713 38.4415L15.4011 38.4013L15.2312 38.3594L15.0616 38.3158L14.8924 38.2705L14.7237 38.2236L14.5554 38.175L14.3874 38.1247L14.2199 38.0727L14.0529 38.0191L13.8864 37.9638L13.7203 37.9068L13.5547 37.8482L13.3897 37.788L13.2253 37.7261L13.0614 37.6625L12.8981 37.5973L12.7354 37.5305L12.5733 37.4621L12.4118 37.3921L12.251 37.3204L12.0908 37.2472L11.9314 37.1722L11.7726 37.0958L11.6146 37.0177L11.4573 36.9381L11.3007 36.8569L11.145 36.7741L10.9899 36.6898L10.8357 36.6039L10.6824 36.5164L10.5298 36.4274L10.3781 36.3369L10.2273 36.2449L10.0773 36.1512L9.92818 36.0562L9.78009 35.9596L9.63281 35.8616L9.48654 35.762L9.34127 35.661L9.1969 35.5585L9.05355 35.4545L8.9112 35.3492L8.76988 35.2422L8.62959 35.134L8.49036 35.0243L8.35219 34.9132L8.2151 34.8007L8.07911 34.6868L7.94423 34.5715L7.81048 34.4549L7.67787 34.3368L7.54641 34.2174L7.41613 34.0968L7.28702 33.9747L7.15912 33.8514L7.03243 33.7267L6.90696 33.6008L6.78273 33.4736L6.65976 33.3451L6.53805 33.2153L6.41762 33.0843L6.29849 32.9521L6.18067 32.8186L6.06416 32.684L5.94899 32.5481L5.83516 32.4111L5.72269 32.2728L5.61159 32.1334L5.50189 31.9929L5.39357 31.8512L5.28666 31.7084L5.18117 31.5645L5.07711 31.4195L4.97449 31.2734L4.87334 31.1263L4.77365 30.9782L4.67544 30.8289L4.57872 30.6787L4.48349 30.5274L4.38979 30.3751L4.2976 30.222L4.20695 30.0677L4.11785 29.9126L4.03029 29.7565L3.9443 29.5995L3.85989 29.4415L3.77706 29.2827L3.69583 29.1231L3.61619 28.9625L3.53819 28.8012L3.46179 28.6389L3.38703 28.4759L3.31391 28.312L3.24244 28.1474L3.17263 27.982L3.10449 27.8159L3.03802 27.649L2.97324 27.4813L2.91016 27.3131L2.84877 27.1441L2.78909 26.9744L2.73111 26.8041L2.67487 26.6332L2.62036 26.4616L2.56758 26.2894L2.51655 26.1167L2.46727 25.9433L2.41974 25.7694L2.37398 25.5951L2.32999 25.4202L2.28777 25.2447L2.24734 25.0688L2.20869 24.8923L2.17184 24.7155L2.13679 24.5382L2.10353 24.3606L2.07209 24.1825L2.04246 24.0041L2.01464 23.8252L1.98865 23.6461L1.96449 23.4665L1.94216 23.2867L1.92166 23.1066L1.90299 22.9262L1.88618 22.7457L1.8712 22.5648L1.85808 22.3837L1.8468 22.2024L1.83739 22.021L1.82982 21.8393L1.82411 21.6576L1.82027 21.4757L1.81829 21.2937L1.81818 21.1116ZM19.4346 7.77678L19.3932 4.27659L19.3538 4.28039L19.1731 4.29963L18.9928 4.32061L18.8126 4.34338L18.6332 4.36783L18.4539 4.39407L18.2748 4.42206L18.0963 4.45177L17.9179 4.48325L17.7404 4.51637L17.5627 4.55134L17.3863 4.58789L17.2095 4.62628L17.0337 4.66629L16.8581 4.70809L16.6833 4.75149L16.5089 4.79664L16.335 4.84347L16.1616 4.89199L15.9891 4.94213L15.8168 4.994L15.6454 5.04749L15.4745 5.10267L15.3045 5.15938L15.1348 5.21788L14.966 5.27794L14.798 5.33959L14.6304 5.40293L14.4638 5.46781L14.2981 5.53426L14.1328 5.60241L13.9684 5.67211L13.8047 5.7434L13.642 5.81619L13.4801 5.89057L13.3191 5.96644L13.1586 6.04399L12.9994 6.12295L12.8409 6.20345L12.6834 6.28547L12.5267 6.369L12.3712 6.45397L12.2163 6.5405L12.0624 6.62854L11.9098 6.71783L11.7577 6.80887L11.6071 6.90111L11.4574 6.99479L11.3085 7.09001L11.1608 7.18662L11.0142 7.28464L10.8689 7.38381L10.7242 7.48474L10.5809 7.58675L10.4387 7.69017L10.2975 7.795L10.1576 7.90109L10.019 8.00844L9.88118 8.1173L9.7449 8.2272L9.60963 8.33855L9.47563 8.4511L9.34281 8.56497L9.21136 8.67992L9.08089 8.79633L8.9519 8.91378L8.82402 9.03258L8.69762 9.15238L8.57238 9.27348L8.44852 9.39567L8.32593 9.51907L8.20453 9.64374L8.08472 9.76927L7.96626 9.89588L7.84885 10.024L7.73307 10.1529L7.6187 10.2827L7.50551 10.4139L7.39397 10.5459L7.28366 10.6791L7.17483 10.8131L7.06743 10.9483L6.96143 11.0844L6.85699 11.2214L6.75392 11.3594L6.65227 11.4985L6.55225 11.6382L6.45357 11.7791L6.35646 11.9208L6.26085 12.0633L6.16668 12.2068L6.07409 12.3511L5.98303 12.4961L5.89349 12.642L5.80556 12.7886L5.71907 12.9361L5.63413 13.0845L5.55087 13.2334L5.46909 13.3831L5.38889 13.5337L5.3103 13.6849L5.23327 13.8368L5.15789 13.9892L5.08408 14.1424L5.01189 14.2962L4.94129 14.4508L4.87235 14.6058L4.80498 14.7615L4.73925 14.9178L4.6752 15.0745L4.61276 15.2319L4.55195 15.3898L4.49281 15.5482L4.43531 15.7071L4.37951 15.8663L4.32532 16.0262L4.27281 16.1865L4.22199 16.3472L4.17284 16.5082L4.12533 16.6699L4.07954 16.8317L4.03542 16.994L3.99298 17.1565L3.95222 17.3195L3.91317 17.4827L3.8758 17.6462L3.84013 17.8101L3.80616 17.9742L3.77389 18.1384L3.7433 18.303L3.71443 18.4677L3.68726 18.6327L3.66179 18.7978L3.63803 18.9631L3.61598 19.1285L3.59562 19.2941L3.57698 19.4597L3.56004 19.6255L3.54481 19.7913L3.53129 19.9571L3.51947 20.1231L3.50936 20.2892L3.50095 20.4551L3.49425 20.6211L3.48925 20.787L3.48596 20.9529L3.48436 21.1187L3.48447 21.2845L3.48627 21.4501L3.48977 21.6158L3.49496 21.7812L3.50184 21.9465L3.51042 22.1117L3.52068 22.2766L3.53262 22.4414L3.54625 22.606L3.56156 22.7703L3.57853 22.9345L3.59719 23.0983L3.6175 23.262L3.63949 23.4252L3.66313 23.5882L3.68844 23.751L3.71539 23.9132L3.74399 24.0752L3.77424 24.2369L3.80612 24.3981L3.83964 24.559L3.87479 24.7193L3.91156 24.8793L3.94995 25.0389L3.98995 25.198L4.03157 25.3566L4.07477 25.5146L4.11959 25.6722L4.16599 25.8293L4.21397 25.9859L4.26353 26.1419L4.31465 26.2972L4.36734 26.4521L4.42159 26.6062L4.47739 26.7599L4.53472 26.9128L4.59362 27.0652L4.65401 27.2168L4.71593 27.3678L4.77938 27.5181L4.84431 27.6676L4.91076 27.8165L4.97869 27.9647L5.04809 28.1121L5.11897 28.2587L5.19131 28.4045L5.2651 28.5496L5.34035 28.6939L5.41702 28.8373L5.49513 28.98L5.57465 29.1217L5.65558 29.2626L5.7379 29.4027L5.82163 29.5418L5.90669 29.6801L5.99319 29.8174L6.08099 29.9538L6.17018 30.0893L6.26069 30.2239L6.35252 30.3574L6.44567 30.4901L6.54015 30.6217L6.63589 30.7523L6.73296 30.882L6.83125 31.0105L6.93086 31.1381L7.03166 31.2645L7.13373 31.39L7.23706 31.5144L7.34154 31.6377L7.44727 31.7599L7.55417 31.881L7.66229 32.001L7.77154 32.1198L7.88193 32.2375L7.99349 32.3541L8.10618 32.4695L8.22001 32.5838L8.33492 32.6968L8.45096 32.8087L8.56803 32.9193L8.68619 33.0289L8.80543 33.1371L8.92569 33.2442L9.04692 33.3499L9.16927 33.4544L9.29263 33.5577L9.41681 33.6597L9.54218 33.7605L9.66836 33.8599L9.79554 33.9581L9.92363 34.055L10.0527 34.1505L10.1826 34.2447L10.3134 34.3376L10.4451 34.4291L10.5777 34.5194L10.7111 34.6082L10.8454 34.6958L10.9804 34.782L11.1164 34.8667L11.2531 34.9501L11.3904 35.0322L11.5287 35.1128L11.6676 35.192L11.8074 35.2698L11.9477 35.3462L12.0889 35.4212L12.2306 35.4947L12.3731 35.5669L12.5163 35.6375L12.6601 35.7068L12.8044 35.7746L12.9494 35.841L13.095 35.9058L13.2413 35.9692L13.388 36.0312L13.5354 36.0917L13.6832 36.1507L13.8315 36.2082L13.9804 36.2642L14.1297 36.3188L14.2795 36.3718L14.4299 36.4233L14.5806 36.4734L14.7318 36.522L14.8833 36.569L15.0354 36.6145L15.1876 36.6585L15.3404 36.701L15.4935 36.742L15.6468 36.7814L15.8005 36.8193L15.9544 36.8557L16.1088 36.8906L16.2634 36.9239L16.4181 36.9557L16.5732 36.986L16.7284 37.0147L16.8839 37.0419L17.0395 37.0675L17.1954 37.0916L17.3514 37.1142L17.5075 37.1352L17.6637 37.1547L17.8201 37.1726L17.9765 37.189L18.1331 37.2039L18.2897 37.2172L18.4464 37.229L18.603 37.2392L18.7597 37.2479L18.9164 37.255L19.073 37.2606L19.2296 37.2647L19.3863 37.2672L19.5427 37.2682L19.6992 37.2676L19.8555 37.2655L20.0117 37.262L20.1678 37.2568L20.3238 37.2501L20.4796 37.242L20.6352 37.2322L20.7906 37.2211L20.9459 37.2083L21.1009 37.1941L21.2556 37.1782L21.4102 37.161L21.5644 37.1422L21.7184 37.122L21.872 37.1002L22.0254 37.0769L22.1784 37.0522L22.3311 37.0259L22.4834 36.9981L22.6354 36.969L22.7869 36.9383L22.9381 36.9062L23.0888 36.8726L23.2391 36.8375L23.389 36.801L23.5384 36.7631L23.6873 36.7236L23.8356 36.6828L23.9836 36.6405L24.131 36.5968L24.2779 36.5517L24.4242 36.5052L24.57 36.4572L24.7152 36.408L24.8596 36.3572L25.0037 36.3051L25.1471 36.2516L25.2898 36.1967L25.4319 36.1405L25.5733 36.083L25.714 36.024L25.8541 35.9637L25.9935 35.9021L26.132 35.8392L26.27 35.7749L26.4072 35.7092L26.5435 35.6424L26.6793 35.5742L26.8141 35.5047L26.9482 35.434L27.0815 35.3619L27.2139 35.2886L27.3455 35.2141L27.4763 35.1383L27.6064 35.0612L27.7353 34.9831L27.8636 34.9035L27.9908 34.8229L28.1172 34.741L28.2427 34.6579L28.3674 34.5735L28.4908 34.4882L28.6134 34.4016L28.7352 34.3139L28.8559 34.2251L28.9757 34.135L29.0944 34.044L29.2123 33.9516L29.3289 33.8583L29.4445 33.764L29.5594 33.6684L29.673 33.5718L29.7854 33.4742L29.897 33.3755L30.0074 33.2759L30.1167 33.1752L30.225 33.0734L30.332 32.9708L30.4381 32.867L30.543 32.7622L30.6467 32.6566L30.7494 32.55L30.8507 32.4425L30.9509 32.3342L31.0502 32.2245L31.148 32.1143L31.2448 32.0031L31.3403 31.8911L31.4346 31.7781L31.5277 31.6643L31.6195 31.5497L31.7103 31.4342L31.7996 31.318L31.8879 31.2008L31.9747 31.083L32.0604 30.9642L32.145 30.8447L32.2279 30.7247L32.3098 30.6037L32.3903 30.4822L32.4695 30.3597L32.5476 30.2365L32.6242 30.1129L32.6994 29.9885L32.7735 29.8632L32.8461 29.7376L32.9175 29.6112L32.9875 29.4841L33.0561 29.3566L33.1234 29.2282L33.1894 29.0993L33.2539 28.9703L33.3172 28.8402L33.3791 28.7097L33.4395 28.5788L33.4986 28.4473L33.5564 28.3153L33.6126 28.183L33.6676 28.0499L33.7212 27.9164L33.7733 27.7829L33.824 27.6483L33.8733 27.5138L33.9213 27.3786L33.9678 27.2432L34.0129 27.1072L34.0564 26.9713L34.0988 26.8344L34.1395 26.6977L34.1789 26.5605L34.2169 26.4232L34.2534 26.2852L34.2885 26.1473L34.3222 26.009L34.3544 25.8703L34.3852 25.7316L34.4145 25.5925L34.4424 25.4535L34.4688 25.3139L34.4938 25.1746L34.5174 25.0348L34.5395 24.8949L34.5601 24.755L34.5794 24.6148L34.5971 24.4748L34.6134 24.3342L34.6283 24.1941L34.6417 24.0535L34.6536 23.9132L34.6642 23.7725L34.6733 23.6323L34.6809 23.4917L34.6871 23.351L34.6918 23.2106L34.6952 23.0705L34.697 22.9299L34.6974 22.7895L34.6964 22.6493L34.694 22.5092L34.6901 22.3692L34.6847 22.2296L34.678 22.0895L34.6698 21.9501L34.6602 21.8106L34.6492 21.6716L34.6367 21.5323L34.6229 21.3937L34.6076 21.255L34.5909 21.1167L34.5728 20.9785L34.5534 20.8408L34.5324 20.703L34.5101 20.5658L34.4865 20.4291L34.4614 20.2922L34.4348 20.1559L34.407 20.0201L34.3777 19.8841L34.3473 19.7492L34.3152 19.6141L34.282 19.48L34.2472 19.3456L34.2112 19.2122L34.1738 19.0791L34.1351 18.9462L34.0951 18.8141L34.0537 18.6824L34.0109 18.5509L33.967 18.4203L33.9215 18.2899L33.875 18.1602L33.827 18.0309L33.7778 17.9024L33.7272 17.7741L33.6754 17.6466L33.6224 17.5199L33.5681 17.3937L33.5123 17.2677L33.4556 17.1429L33.3974 17.0182L33.3381 16.8946L33.2775 16.7715L33.2156 16.6489L33.1527 16.5272L33.0885 16.4061L33.0229 16.2856L32.9565 16.1662L32.8886 16.0472L32.8197 15.9291L32.7494 15.8115L32.6784 15.6951L32.6057 15.5791L32.5323 15.4641L32.4575 15.3496L32.3816 15.2361L32.3048 15.1237L32.2266 15.0117L32.1475 14.9007L32.0673 14.7905L31.9859 14.6813L31.9035 14.5728L31.8201 14.4653L31.7356 14.3586L31.6501 14.2529L31.5635 14.1481L31.4759 14.0441L31.3873 13.9411L31.2977 13.839L31.2073 13.7379L31.1157 13.6377L31.023 13.5383L30.9298 13.4403L30.8351 13.3429L30.7399 13.2468L30.6436 13.1514L30.5465 13.0572L30.4482 12.9638L30.3494 12.8718L30.2494 12.7805L30.1486 12.6903L30.0473 12.6013L29.9449 12.5133L29.8414 12.4261L29.7373 12.3402L29.6325 12.2554L29.5267 12.1717L29.4202 12.089L29.3131 12.0076L29.2048 11.9269L29.0962 11.8477L28.9866 11.7695L28.8763 11.6923L28.7654 11.6164L28.6535 11.5414L28.5414 11.468L28.4282 11.3953L28.3145 11.324L28.2 11.2537L28.085 11.1846L27.9694 11.1168L27.8533 11.0502L27.7361 10.9845L27.6189 10.9203L27.5007 10.8571L27.3821 10.7952L27.263 10.7346L27.1432 10.6751L27.0229 10.6167L26.9022 10.5597L26.7808 10.5038L26.6592 10.4492L26.5369 10.3958L26.4103 10.342L26.2912 10.2928L26.1673 10.243L26.0435 10.1947L25.9188 10.1473L25.7941 10.1015L25.6688 10.0568L25.5433 10.0134L25.4172 9.97115L25.291 9.93033L25.1643 9.8907L25.0373 9.85233L24.9102 9.81533L24.7825 9.77948L24.6544 9.74486L24.5265 9.71165L24.3984 9.6797L24.2694 9.64893L24.1408 9.61958L24.0116 9.59139L23.8825 9.56458L23.7528 9.53898L23.6234 9.51472L23.4935 9.49172L23.3638 9.47006L23.2334 9.4496L23.1034 9.4305L22.9732 9.41267L22.8427 9.39611L22.7123 9.38086L22.5818 9.36691L22.4513 9.35424L22.3206 9.34286L22.1899 9.33276L22.0591 9.32394L21.9286 9.31643L21.7981 9.3102L21.6671 9.30525L21.5368 9.30159L21.4063 9.29921L21.2758 9.29812L21.1452 9.2983L21.119 9.2986L21.1602 12.7733L21.2343 12.773L21.3296 12.7735L21.425 12.775L21.5205 12.7774L21.616 12.7808L21.7115 12.7851L21.8071 12.7904L21.9027 12.7966L21.9984 12.8038L22.094 12.8119L22.1896 12.821L22.2852 12.831L22.3808 12.842L22.4764 12.8539L22.5718 12.8667L22.6673 12.8806L22.7626 12.8953L22.8579 12.9111L22.9532 12.9278L23.0483 12.9454L23.1433 12.9641L23.2382 12.9836L23.333 13.0041L23.4276 13.0255L23.5221 13.048L23.6164 13.0713L23.7105 13.0956L23.8045 13.1209L23.8984 13.1471L23.992 13.1742L24.0854 13.2023L24.1786 13.2313L24.2715 13.2613L24.3643 13.2922L24.4568 13.3241L24.549 13.357L24.641 13.3907L24.7326 13.4253L24.8241 13.461L24.9152 13.4975L25.006 13.535L25.0964 13.5734L25.1866 13.6127L25.2764 13.653L25.3659 13.6941L25.455 13.7361L25.5438 13.7792L25.6322 13.8231L25.7202 13.8679L25.8078 13.9136L25.895 13.9601L25.9818 14.0077L26.0682 14.0561L26.1541 14.1053L26.2396 14.1555L26.3247 14.2066L26.4093 14.2585L26.4934 14.3113L26.577 14.3651L26.6602 14.4196L26.7428 14.475L26.825 14.5312L26.9066 14.5884L26.9877 14.6463L27.0683 14.7051L27.1483 14.7649L27.2278 14.8253L27.3066 14.8867L27.385 14.9489L27.4627 15.0118L27.5399 15.0756L27.6164 15.1402L27.6924 15.2056L27.7678 15.2718L27.8425 15.3388L27.9166 15.4066L27.99 15.4752L28.0628 15.5445L28.1349 15.6146L28.2064 15.6855L28.2772 15.7572L28.3473 15.8296L28.4167 15.9027L28.4854 15.9766L28.5534 16.0512L28.6206 16.1266L28.6872 16.2026L28.753 16.2794L28.8181 16.3569L28.8825 16.4351L28.946 16.514L29.0088 16.5935L29.0708 16.6738L29.1321 16.7547L29.1925 16.8363L29.2522 16.9185L29.3111 17.0014L29.3691 17.085L29.4264 17.1692L29.4827 17.254L29.5383 17.3393L29.593 17.4254L29.6469 17.5121L29.7 17.5992L29.7522 17.6871L29.8034 17.7755L29.8539 17.8644L29.9034 17.954L29.9521 18.0441L29.9999 18.1347L30.0468 18.2259L30.0927 18.3176L30.1378 18.4099L30.182 18.5026L30.2252 18.5958L30.2675 18.6896L30.3088 18.7838L30.3493 18.8785L30.3887 18.9737L30.4273 19.0693L30.4648 19.1654L30.5014 19.2619L30.537 19.3589L30.5716 19.4562L30.6054 19.5541L30.6381 19.6522L30.6697 19.7509L30.7005 19.8498L30.7302 19.9492L30.7589 20.0489L30.7866 20.149L30.8133 20.2494L30.839 20.3502L30.8636 20.4512L30.8873 20.5526L30.9099 20.6543L30.9314 20.7563L30.952 20.8586L30.9714 20.9612L30.9899 21.0641L31.0074 21.1672L31.0237 21.2704L31.039 21.3741L31.0533 21.4778L31.0665 21.5818L31.0786 21.6861L31.0896 21.7905L31.0996 21.8951L31.1086 21.9999L31.1164 22.1048L31.1233 22.2099L31.1289 22.3151L31.1335 22.4204L31.1371 22.526L31.1395 22.6315L31.1409 22.7372L31.1412 22.8431L31.1404 22.9489L31.1385 23.0548L31.1355 23.1608L31.1314 23.2669L31.1262 23.3729L31.1199 23.479L31.1125 23.5852L31.1041 23.6912L31.0944 23.7973L31.0838 23.9034L31.072 24.0094L31.0592 24.1155L31.0452 24.2214L31.0301 24.3273L31.0139 24.4332L30.9966 24.5389L30.9783 24.6445L30.9587 24.7501L30.9382 24.8555L30.9164 24.9608L30.8936 25.066L30.8698 25.171L30.8448 25.2758L30.8187 25.3804L30.7915 25.485L30.7633 25.5892L30.7339 25.6933L30.7034 25.7971L30.6719 25.9008L30.6393 26.0042L30.6054 26.1074L30.5706 26.2102L30.5347 26.3129L30.4978 26.4152L30.4597 26.5172L30.4205 26.619L30.3804 26.7204L30.3391 26.8215L30.2967 26.9223L30.2533 27.0227L30.2088 27.1228L30.1633 27.2225L30.1166 27.3218L30.069 27.4207L30.0203 27.5192L29.9704 27.6173L29.9196 27.7151L29.8678 27.8122L29.8149 27.9091L29.761 28.0054L29.7061 28.1013L29.6501 28.1967L29.5931 28.2917L29.5351 28.3861L29.4761 28.4801L29.416 28.5734L29.355 28.6663L29.2929 28.7586L29.2299 28.8504L29.1659 28.9417L29.1009 29.0323L29.0349 29.1224L28.968 29.212L28.9001 29.3009L28.8312 29.3892L28.7614 29.4768L28.6905 29.5639L28.6188 29.6502L28.5462 29.7361L28.4725 29.8212L28.398 29.9056L28.3225 29.9893L28.2462 30.0724L28.1689 30.1548L28.0908 30.2365L28.0117 30.3174L27.9318 30.3977L27.8509 30.4772L27.7693 30.556L27.6866 30.634L27.6033 30.7112L27.519 30.7877L27.4338 30.8633L27.3479 30.9382L27.2611 31.0124L27.1735 31.0857L27.0851 31.1582L26.9959 31.2299L26.9058 31.3007L26.815 31.3707L26.7234 31.4399L26.6311 31.5082L26.5379 31.5756L26.4441 31.6422L26.3494 31.7079L26.2541 31.7727L26.1579 31.8366L26.0611 31.8996L25.9635 31.9617L25.8654 32.0229L25.7664 32.0831L25.6668 32.1424L25.5665 32.2008L25.4655 32.2582L25.3639 32.3146L25.2616 32.3701L25.1587 32.4247L25.0552 32.4782L24.951 32.5308L24.8463 32.5823L24.7409 32.633L24.6349 32.6825L24.5284 32.7311L24.4213 32.7786L24.3136 32.8252L24.2054 32.8706L24.0966 32.9151L23.9874 32.9585L23.8775 33.0009L23.7673 33.0422L23.6565 33.0825L23.5452 33.1217L23.4334 33.1598L23.3212 33.1969L23.2085 33.2328L23.0954 33.2677L22.9818 33.3015L22.8678 33.3342L22.7534 33.3658L22.6386 33.3962L22.5235 33.4256L22.4079 33.4539L22.292 33.4811L22.1756 33.5071L22.0591 33.532L21.9421 33.5557L21.8248 33.5783L21.7073 33.5999L21.5894 33.6202L21.4712 33.6394L21.3528 33.6574L21.2341 33.6743L21.1151 33.6901L20.9959 33.7047L20.8765 33.7181L20.7569 33.7303L20.6371 33.7414L20.5171 33.7513L20.3969 33.7601L20.2765 33.7676L20.156 33.774L20.0354 33.7792L19.9145 33.7832L19.7936 33.786L19.6726 33.7876L19.5514 33.7881L19.4303 33.7873L19.3091 33.7853L19.1877 33.7822L19.0664 33.7779L18.945 33.7723L18.8235 33.7656L18.7022 33.7577L18.5807 33.7486L18.4594 33.7382L18.338 33.7267L18.2166 33.714L18.0954 33.7001L17.9742 33.685L17.853 33.6686L17.732 33.6511L17.6111 33.6323L17.4903 33.6124L17.3695 33.5912L17.249 33.569L17.1286 33.5454L17.0084 33.5206L16.8884 33.4947L16.7685 33.4676L16.6489 33.4392L16.5294 33.4097L16.4103 33.379L16.2913 33.3471L16.1725 33.314L16.0542 33.2797L15.936 33.2442L15.8181 33.2076L15.7005 33.1697L15.5834 33.1307L15.4664 33.0905L15.3498 33.0492L15.2336 33.0066L15.1177 32.9629L15.0023 32.918L14.8872 32.872L14.7724 32.8247L14.6582 32.7763L14.5444 32.7269L14.431 32.6762L14.318 32.6243L14.2055 32.5714L14.0935 32.5173L13.982 32.4621L13.8709 32.4057L13.7604 32.3482L13.6504 32.2896L13.541 32.2299L13.4321 32.1691L13.3237 32.1071L13.2159 32.0441L13.1087 31.9799L13.0021 31.9146L12.8961 31.8483L12.7907 31.7809L12.686 31.7124L12.5819 31.6428L12.4784 31.5721L12.3756 31.5005L12.2735 31.4278L12.1721 31.354L12.0714 31.2792L11.9713 31.2032L11.872 31.1263L11.7734 31.0484L11.6756 30.9694L11.5785 30.8895L11.4822 30.8085L11.3866 30.7266L11.2919 30.6436L11.1979 30.5597L11.1047 30.4748L11.0124 30.389L10.9209 30.3022L10.8302 30.2143L10.7404 30.1256L10.6514 30.036L10.5634 29.9453L10.4761 29.8539L10.3897 29.7614L10.3044 29.6682L10.2198 29.5739L10.1362 29.4788L10.0535 29.3828L9.97172 29.286L9.891 29.1882L9.81109 29.0896L9.73227 28.9902L9.65436 28.89L9.57745 28.7889L9.50154 28.687L9.42654 28.5843L9.35263 28.4808L9.27981 28.3765L9.2079 28.2714L9.13709 28.1656L9.06732 28.0591L8.9986 27.9517L8.93094 27.8436L8.86436 27.7348L8.79885 27.6252L8.73443 27.5151L8.6711 27.4041L8.60888 27.2925L8.54777 27.1802L8.48778 27.0672L8.4289 26.9536L8.37117 26.8393L8.31458 26.7244L8.25913 26.6089L8.20484 26.4928L8.15171 26.376L8.09975 26.2587L8.04897 26.1408L7.99937 26.0222L7.95095 25.9032L7.90374 25.7837L7.85772 25.6635L7.81291 25.5429L7.76931 25.4218L7.72694 25.3001L7.68579 25.178L7.64588 25.0553L7.60719 24.9322L7.56976 24.8088L7.53357 24.6848L7.49863 24.5604L7.46495 24.4356L7.43254 24.3103L7.40139 24.1848L7.37151 24.0588L7.34292 23.9324L7.3156 23.8057L7.28958 23.6787L7.26484 23.5513L7.24139 23.4236L7.21925 23.2956L7.19841 23.1673L7.17888 23.0388L7.16065 22.91L7.14374 22.7809L7.12815 22.6515L7.11388 22.522L7.10092 22.3922L7.08929 22.2622L7.079 22.1321L7.07004 22.0018L7.0624 21.8712L7.05611 21.7406L7.05116 21.6099L7.04755 21.479L7.04528 21.348L7.04435 21.2168L7.04478 21.0856L7.04654 20.9543L7.04967 20.8231L7.05413 20.6917L7.05996 20.5602L7.06714 20.4289L7.07567 20.2974L7.08556 20.1661L7.09679 20.0346L7.10939 19.9033L7.12336 19.772L7.13867 19.6408L7.15534 19.5096L7.17337 19.3785L7.19275 19.2475L7.21349 19.1167L7.23559 18.986L7.25904 18.8554L7.28385 18.725L7.31001 18.5947L7.33752 18.4647L7.36639 18.3348L7.39661 18.2051L7.42818 18.0757L7.46109 17.9465L7.49535 17.8176L7.53095 17.6889L7.56789 17.5605L7.60619 17.4324L7.6458 17.3046L7.68677 17.1771L7.72906 17.05L7.77268 16.9231L7.81763 16.7967L7.8639 16.6706L7.91149 16.5449L7.9604 16.4196L8.01063 16.2947L8.06217 16.1702L8.11501 16.0462L8.16916 15.9226L8.22461 15.7995L8.28135 15.6769L8.33939 15.5547L8.3987 15.4331L8.45931 15.312L8.52119 15.1913L8.58435 15.0713L8.64877 14.9518L8.71446 14.8329L8.7814 14.7145L8.84959 14.5967L8.91904 14.4796L8.98973 14.3631L9.06165 14.2472L9.13481 14.1319L9.20918 14.0172L9.28481 13.9033L9.36154 13.7901L9.43963 13.6775L9.51881 13.5656L9.59918 13.4544L9.68081 13.3441L9.76354 13.2343L9.84754 13.1254L9.93263 13.0172L10.0189 12.9099L10.1063 12.8033L10.1948 12.6975L10.2845 12.5925L10.3754 12.4883L10.4673 12.3851L10.5604 12.2826L10.6544 12.181L10.7497 12.0802L10.8461 11.9803L10.9434 11.8814L11.0419 11.7833L11.1414 11.6861L11.2421 11.59L11.3437 11.4946L11.4464 11.4003L11.5501 11.3069L11.6548 11.2145L11.7604 11.1231L11.8672 11.0326L11.9749 10.9431L12.0835 10.8547L12.1932 10.7672L12.3038 10.6809L12.4154 10.5955L12.5278 10.5112L12.6413 10.428L12.7555 10.3458L12.8707 10.2647L12.9869 10.1847L13.1039 10.1058L13.2217 10.0281L13.3405 9.95133L13.4601 9.87579L13.5805 9.80137L13.7018 9.72809L13.8239 9.65596L13.9467 9.58499L14.0704 9.51519L14.1949 9.44657L14.3201 9.37914L14.4461 9.3129L14.5728 9.24787L14.7003 9.18404L14.8284 9.12143L14.9574 9.06005L15.087 8.9999L15.2173 8.94099L15.3483 8.88333L15.4799 8.82693L15.6122 8.77179L15.7451 8.71792L15.8785 8.66533L16.0127 8.61402L16.1474 8.564L16.2828 8.51529L16.4187 8.46787L16.5552 8.42176L16.6922 8.37697L16.8296 8.3335L16.9677 8.29136L17.1063 8.25055L17.2454 8.21109L17.3848 8.17296L17.5248 8.13619L17.6653 8.10077L17.8062 8.06671L17.9475 8.03403L18.0892 8.0027L18.2313 7.97276L18.3737 7.94419L18.5166 7.91702L18.6598 7.89123L18.8034 7.86683L18.9473 7.84383L19.0914 7.82223L19.2359 7.80204L19.3806 7.78325L19.4346 7.77678ZM19.4957 12.9305L19.4541 9.41759L19.3354 9.43418L19.2079 9.45329L19.0803 9.47369L18.9534 9.49524L18.8265 9.51811L18.7001 9.54216L18.574 9.56744L18.4484 9.5939L18.323 9.62162L18.1979 9.65057L18.0732 9.6807L17.949 9.71203L17.8249 9.74461L17.7057 9.77715L17.5787 9.81324L17.4561 9.84933L17.334 9.8866L17.2125 9.92497L17.0914 9.9646L16.9706 10.0054L16.8504 10.0473L16.7309 10.0903L16.6118 10.1346L16.4933 10.1799L16.3752 10.2264L16.258 10.274L16.1408 10.3228L16.0245 10.3726L15.9088 10.4235L15.7939 10.4755L15.6793 10.5287L15.5653 10.583L15.4523 10.6381L15.3394 10.6946L15.2278 10.752L15.1164 10.8106L15.006 10.87L14.8958 10.9308L14.7867 10.9922L14.6784 11.0549L14.5705 11.1186L14.4635 11.1832L14.3571 11.2491L14.2517 11.3156L14.1468 11.3833L14.0429 11.452L13.9397 11.5215L13.8373 11.5921L13.7354 11.6638L13.6348 11.7361L13.5347 11.8096L13.4354 11.884L13.3371 11.9592L13.2396 12.0353L13.1428 12.1125L13.0471 12.1904L12.9522 12.2692L12.858 12.3491L12.765 12.4296L12.6726 12.5111L12.5812 12.5935L12.4907 12.6766L12.4013 12.7605L12.3124 12.8454L12.2249 12.9309L12.1382 13.0172L12.0523 13.1045L11.9674 13.1924L11.8835 13.2812L11.8006 13.3707L11.7187 13.4609L11.6377 13.5519L11.5576 13.6437L11.4789 13.736L11.4009 13.8291L11.3239 13.9231L11.248 14.0175L11.1732 14.1126L11.0992 14.2086L11.0264 14.3051L10.9545 14.4022L10.8838 14.5001L10.8141 14.5985L10.7455 14.6974L10.678 14.7971L10.6114 14.8973L10.546 14.9981L10.4817 15.0994L10.4185 15.2013L10.3564 15.304L10.2953 15.4069L10.2354 15.5104L10.1764 15.6145L10.1188 15.7189L10.0622 15.824L10.0065 15.9296L9.95227 16.0354L9.89899 16.142L9.8469 16.2489L9.7959 16.3561L9.74609 16.4639L9.69736 16.572L9.64981 16.6805L9.60336 16.7894L9.55818 16.8987L9.51409 17.0083L9.47109 17.1184L9.42927 17.2288L9.38872 17.3394L9.34918 17.4505L9.31099 17.5617L9.27381 17.6733L9.2379 17.7852L9.20309 17.8974L9.16954 18.0098L9.13709 18.1224L9.1059 18.2352L9.07582 18.3484L9.04695 18.4617L9.01927 18.5752L8.99278 18.689L8.96746 18.8028L8.94332 18.9169L8.9204 19.0311L8.89865 19.1453L8.87809 19.2599L8.85873 19.3744L8.84054 19.4892L8.82357 19.6038L8.80776 19.7187L8.79316 19.8336L8.77974 19.9486L8.76751 20.0636L8.75648 20.1787L8.74663 20.2938L8.73798 20.4088L8.7305 20.524L8.72421 20.6391L8.71911 20.7541L8.7152 20.8691L8.71247 20.984L8.71092 21.0989L8.71055 21.2138L8.71136 21.3285L8.71335 21.4431L8.71651 21.5577L8.72084 21.6721L8.72635 21.7864L8.73302 21.9006L8.74086 22.0145L8.74987 22.1284L8.76003 22.2421L8.77136 22.3555L8.78384 22.4688L8.79747 22.5819L8.81226 22.6948L8.82819 22.8073L8.84527 22.9198L8.86348 23.0318L8.88283 23.1437L8.90332 23.2553L8.92493 23.3665L8.94768 23.4776L8.97153 23.5882L8.99652 23.6987L9.02259 23.8086L9.04981 23.9183L9.07812 24.0277L9.10754 24.1367L9.13799 24.2452L9.16963 24.3535L9.20227 24.4613L9.23609 24.5688L9.2709 24.6759L9.30681 24.7824L9.34381 24.8885L9.38181 24.9942L9.4209 25.0995L9.46109 25.2043L9.50227 25.3086L9.54445 25.4124L9.58772 25.5158L9.63199 25.6186L9.67736 25.7209L9.72363 25.8227L9.771 25.9239L9.81936 26.0246L9.86863 26.1248L9.91899 26.2243L9.97027 26.3234L10.0225 26.4219L10.0758 26.5197L10.13 26.617L10.1852 26.7136L10.2413 26.8096L10.2984 26.905L10.3564 26.9998L10.4153 27.0939L10.4751 27.1873L10.5359 27.2802L10.5974 27.3722L10.6601 27.4638L10.7234 27.5545L10.7878 27.6446L10.853 27.734L10.9191 27.8226L10.986 27.9105L11.0538 27.9978L11.1224 28.0842L11.1918 28.17L11.2621 28.255L11.3332 28.3392L11.4051 28.4226L11.4778 28.5054L11.5513 28.5872L11.6255 28.6684L11.7005 28.7487L11.7764 28.8282L11.8529 28.907L11.9303 28.9849L12.0083 29.062L12.0871 29.1382L12.1666 29.2137L12.2467 29.2882L12.3277 29.3621L12.4093 29.4349L12.4915 29.5069L12.5745 29.5781L12.6582 29.6483L12.7424 29.7178L12.8274 29.7862L12.9129 29.8539L12.9991 29.9206L13.0859 29.9865L13.1734 30.0514L13.2613 30.1154L13.3498 30.1785L13.439 30.2407L13.5287 30.302L13.6191 30.3623L13.7099 30.4217L13.8013 30.4802L13.8932 30.5377L13.9855 30.5942L14.0785 30.6499L14.1719 30.7045L14.2657 30.7582L14.3602 30.8109L14.4549 30.8626L14.5503 30.9134L14.646 30.9632L14.7421 31.012L14.8387 31.0599L14.9358 31.1067L15.0332 31.1526L15.1309 31.1974L15.2292 31.2413L15.3276 31.2842L15.4265 31.326L15.5258 31.3669L15.6254 31.4067L15.7253 31.4455L15.8255 31.4833L15.9261 31.5202L16.0269 31.556L16.128 31.5907L16.2294 31.6245L16.3311 31.6572L16.433 31.6889L16.5352 31.7195L16.6375 31.7492L16.7401 31.7778L16.8429 31.8053L16.9459 31.832L17.0491 31.8574L17.1524 31.8819L17.256 31.9053L17.3597 31.9278L17.4635 31.9492L17.5674 31.9694L17.6716 31.9887L17.7757 32.007L17.8801 32.0242L17.9844 32.0403L18.0889 32.0555L18.1934 32.0696L18.298 32.0827L18.4026 32.0947L18.5073 32.1057L18.612 32.1156L18.7167 32.1245L18.8214 32.1323L18.9262 32.1392L19.0308 32.145L19.1354 32.1498L19.2402 32.1535L19.3447 32.1562L19.4492 32.1579L19.5536 32.1585L19.658 32.1581L19.7623 32.1567L19.8664 32.1543L19.9704 32.1509L20.0744 32.1464L20.1782 32.1409L20.2818 32.1344L20.3853 32.1269L20.4886 32.1183L20.5917 32.1088L20.6947 32.0982L20.7975 32.0867L20.9001 32.0742L21.0024 32.0606L21.1045 32.0462L21.2064 32.0306L21.3081 32.0141L21.4094 31.9966L21.5105 31.9781L21.6114 31.9586L21.7119 31.9382L21.8123 31.9168L21.9121 31.8944L22.0117 31.8712L22.111 31.8468L22.21 31.8216L22.3086 31.7954L22.4069 31.7682L22.5048 31.7402L22.6024 31.7112L22.6994 31.6812L22.7962 31.6503L22.8926 31.6185L22.9885 31.5858L23.0841 31.5522L23.1792 31.5176L23.2738 31.4822L23.368 31.4458L23.4617 31.4085L23.5551 31.3703L23.6479 31.3313L23.7402 31.2914L23.8321 31.2507L23.9234 31.2091L24.0143 31.1665L24.1046 31.1232L24.1943 31.0791L24.2837 31.0339L24.3724 30.9881L24.4606 30.9412L24.5481 30.8938L24.6352 30.8454L24.7217 30.7962L24.8075 30.7462L24.8929 30.6954L24.9776 30.6439L25.0616 30.5915L25.1453 30.5383L25.228 30.4845L25.3103 30.4298L25.392 30.3742L25.4729 30.3181L25.5531 30.2612L25.6329 30.2034L25.7118 30.1452L25.7902 30.086L25.8679 30.0261L25.9446 29.9656L26.0211 29.9042L26.0967 29.8422L26.1714 29.7797L26.2457 29.7162L26.3191 29.6522L26.3917 29.5877L26.4639 29.5222L26.535 29.4563L26.6055 29.3897L26.6754 29.3224L26.7443 29.2546L26.8125 29.1861L26.8801 29.117L26.9468 29.0472L27.0126 28.977L27.0778 28.9061L27.1423 28.8346L27.2057 28.7627L27.2686 28.69L27.3305 28.6169L27.3916 28.5432L27.4521 28.4689L27.5115 28.3943L27.5703 28.319L27.6282 28.2432L27.6853 28.1669L27.7414 28.0902L27.7967 28.0131L27.8514 27.9352L27.905 27.8571L27.9578 27.7784L28.0099 27.6992L28.0608 27.6199L28.1112 27.5399L28.1605 27.4594L28.2091 27.3787L28.2566 27.2975L28.3035 27.2158L28.3493 27.1341L28.3944 27.0515L28.4384 26.9689L28.4815 26.8859L28.524 26.8022L28.5653 26.7188L28.6059 26.6344L28.6454 26.5503L28.6843 26.4653L28.7219 26.3805L28.7589 26.295L28.7949 26.2095L28.8299 26.1237L28.8641 26.0375L28.8974 25.9511L28.9295 25.8646L28.9611 25.7776L28.9914 25.6905L29.021 25.6032L29.0496 25.5157L29.0774 25.4279L29.1042 25.34L29.13 25.252L29.1549 25.1636L29.1788 25.0752L29.2019 24.9866L29.224 24.8979L29.2452 24.8092L29.2655 24.72L29.2847 24.6309L29.3032 24.5417L29.3205 24.4525L29.3371 24.3631L29.3526 24.2734L29.3673 24.1841L29.381 24.0944L29.3937 24.0047L29.4055 23.9151L29.4165 23.8254L29.4264 23.7354L29.4355 23.6461L29.4436 23.556L29.4508 23.4662L29.457 23.3767L29.4624 23.2869L29.4667 23.1972L29.4702 23.1077L29.4727 23.0179L29.4743 22.9286L29.475 22.839L29.4747 22.7496L29.4736 22.6602L29.4715 22.5712L29.4685 22.4821L29.4646 22.3931L29.4598 22.3044L29.4541 22.2155L29.4475 22.1269L29.44 22.0387L29.4315 21.9502L29.4222 21.8623L29.4119 21.7742L29.4008 21.6866L29.3888 21.5991L29.3759 21.5116L29.3621 21.4245L29.3475 21.3377L29.3319 21.2511L29.3155 21.1647L29.2981 21.0782L29.2799 20.9924L29.2609 20.9069L29.241 20.8214L29.2202 20.7362L29.1986 20.6516L29.1761 20.5668L29.1528 20.4827L29.1286 20.3987L29.1036 20.3152L29.0778 20.2319L29.0511 20.1489L29.0236 20.0664L28.9954 19.9842L28.9661 19.9022L28.9363 19.8208L28.9054 19.7396L28.8739 19.659L28.8415 19.5785L28.8084 19.4984L28.7744 19.4191L28.7396 19.3398L28.7042 19.2612L28.6679 19.183L28.6308 19.105L28.5929 19.0274L28.5545 18.9506L28.515 18.874L28.475 18.7981L28.4342 18.7226L28.3925 18.6472L28.3504 18.5728L28.3073 18.4986L28.2635 18.4251L28.219 18.3518L28.174 18.2793L28.128 18.2071L28.0815 18.1356L28.0343 18.0646L27.9864 17.9942L27.9376 17.9241L27.8884 17.8547L27.8385 17.786L27.7878 17.7175L27.7366 17.6499L27.6846 17.5827L27.6323 17.5162L27.579 17.4501L27.5252 17.3848L27.4707 17.32L27.4157 17.2557L27.3602 17.1922L27.3038 17.1291L27.2471 17.0669L27.1896 17.0051L27.1318 16.9442L27.0731 16.8835L27.0141 16.8238L26.9543 16.7644L26.8941 16.706L26.8335 16.6481L26.7722 16.5909L26.7103 16.5342L26.6479 16.4784L26.5851 16.4232L26.5215 16.3685L26.458 16.3149L26.3935 16.2615L26.3287 16.2091L26.2634 16.1573L26.1976 16.1061L26.1315 16.0557L26.065 16.0061L25.9977 15.9571L25.93 15.9086L25.8623 15.8612L25.7936 15.8142L25.7251 15.7683L25.6559 15.7229L25.5863 15.6781L25.5162 15.6342L25.446 15.5911L25.3751 15.5485L25.3041 15.5069L25.2324 15.4658L25.1609 15.4257L25.0887 15.3862L25.0162 15.3474L24.9434 15.3094L24.8704 15.2723L24.7969 15.2358L24.7231 15.2001L24.6492 15.1651L24.5751 15.1311L24.5002 15.0975L24.4256 15.065L24.3505 15.0331L24.2751 15.002L24.1995 14.9717L24.1239 14.9422L24.0479 14.9135L23.9715 14.8854L23.8952 14.8583L23.8184 14.8319L23.7415 14.8062L23.6647 14.7814L23.5875 14.7574L23.5104 14.7341L23.4325 14.7116L23.355 14.69L23.2773 14.6691L23.1994 14.649L23.1214 14.6296L23.043 14.6111L22.9648 14.5933L22.8866 14.5764L22.8081 14.5602L22.7294 14.5448L22.6511 14.5303L22.5723 14.5165L22.4936 14.5035L22.4146 14.4912L22.3361 14.4799L22.2569 14.4691L22.1783 14.4594L22.0994 14.4503L22.0204 14.4421L21.9416 14.4346L21.8626 14.4279L21.784 14.422L21.7049 14.4169L21.6262 14.4125L21.5476 14.409L21.4685 14.4061L21.3901 14.4042L21.3115 14.403L21.2331 14.4025L21.1794 14.4027L21.2201 17.8349L21.2444 17.835L21.2894 17.8356L21.3346 17.8367L21.3799 17.8381L21.4252 17.8402L21.4705 17.8427L21.5159 17.8456L21.5614 17.8491L21.6068 17.853L21.6524 17.8573L21.6979 17.8622L21.7435 17.8674L21.7891 17.8732L21.8346 17.8795L21.8803 17.8862L21.9259 17.8935L21.9715 17.9012L22.0171 17.9094L22.0627 17.9182L22.1083 17.9272L22.1538 17.937L22.1994 17.9471L22.2449 17.9577L22.2903 17.9688L22.3357 17.9803L22.3811 17.9924L22.4264 18.005L22.4716 18.018L22.5168 18.0315L22.5619 18.0455L22.6069 18.0601L22.6519 18.0751L22.6967 18.0905L22.7415 18.1064L22.7862 18.1229L22.8307 18.1398L22.8752 18.1572L22.9195 18.1751L22.9637 18.1934L23.0078 18.2122L23.0518 18.2316L23.0956 18.2514L23.1394 18.2717L23.1829 18.2925L23.2263 18.3137L23.2695 18.3354L23.3125 18.3577L23.3554 18.3803L23.3982 18.4035L23.4407 18.4272L23.4831 18.4512L23.5253 18.4758L23.5672 18.5008L23.609 18.5263L23.6505 18.5523L23.6919 18.5788L23.733 18.6056L23.7739 18.633L23.8146 18.6609L23.8551 18.6891L23.8953 18.7179L23.9353 18.7471L23.975 18.7767L24.0144 18.8068L24.0536 18.8373L24.0926 18.8683L24.1313 18.8998L24.1696 18.9316L24.2078 18.964L24.2456 18.9967L24.2832 19.0299L24.3204 19.0635L24.3574 19.0976L24.394 19.1321L24.4303 19.167L24.4664 19.2023L24.502 19.2381L24.5374 19.2742L24.5724 19.3108L24.6071 19.3478L24.6415 19.3852L24.6754 19.4231L24.7092 19.4612L24.7424 19.4999L24.7754 19.5389L24.808 19.5782L24.8402 19.6181L24.872 19.6582L24.9035 19.6988L24.9345 19.7398L24.9653 19.7811L24.9955 19.8228L25.0254 19.8648L25.0549 19.9072L25.084 19.9501L25.1126 19.9932L25.1409 20.0367L25.1688 20.0806L25.1962 20.1248L25.2232 20.1693L25.2497 20.2142L25.2758 20.2594L25.3015 20.305L25.3267 20.3509L25.3515 20.3971L25.3759 20.4436L25.3997 20.4904L25.4232 20.5375L25.4461 20.585L25.4685 20.6328L25.4905 20.6808L25.5121 20.7292L25.5332 20.7778L25.5537 20.8267L25.5738 20.8759L25.5934 20.9253L25.6124 20.9751L25.6311 21.0251L25.6492 21.0753L25.6667 21.1259L25.6838 21.1766L25.7004 21.2276L25.7164 21.2789L25.7319 21.3303L25.7469 21.3821L25.7614 21.4341L25.7754 21.4862L25.7888 21.5385L25.8016 21.5912L25.814 21.644L25.8258 21.6969L25.8371 21.7501L25.8478 21.8035L25.8579 21.857L25.8675 21.9108L25.8766 21.9647L25.8852 22.0187L25.8931 22.073L25.9004 22.1273L25.9073 22.1819L25.9135 22.2366L25.9193 22.2914L25.9244 22.3463L25.9289 22.4014L25.9329 22.4567L25.9363 22.512L25.9391 22.5674L25.9413 22.623L25.943 22.6786L25.944 22.7343L25.9445 22.7901L25.9444 22.846L25.9437 22.902L25.9424 22.9581L25.9405 23.0141L25.9381 23.0703L25.935 23.1265L25.9314 23.1828L25.9271 23.2391L25.9222 23.2954L25.9167 23.3518L25.9107 23.4081L25.904 23.4645L25.8967 23.521L25.8889 23.5774L25.8804 23.6338L25.8714 23.6902L25.8616 23.7465L25.8514 23.8029L25.8404 23.8592L25.829 23.9155L25.8168 23.9718L25.8041 24.028L25.7908 24.0842L25.7768 24.1402L25.7623 24.1963L25.7472 24.2522L25.7314 24.3082L25.715 24.3639L25.698 24.4196L25.6805 24.4752L25.6623 24.5307L25.6434 24.5861L25.6241 24.6414L25.604 24.6965L25.5834 24.7516L25.5622 24.8064L25.5404 24.8612L25.5179 24.9158L25.4949 24.9702L25.4713 25.0245L25.447 25.0787L25.4222 25.1326L25.3967 25.1863L25.3706 25.24L25.3441 25.2933L25.3168 25.3465L25.289 25.3995L25.2605 25.4522L25.2315 25.5048L25.202 25.5571L25.1718 25.6092L25.141 25.6612L25.1097 25.7127L25.0777 25.7642L25.0453 25.8152L25.0122 25.8661L24.9784 25.9167L24.9443 25.967L24.9095 26.0171L24.8741 26.0668L24.8381 26.1162L24.8016 26.1654L24.7645 26.2142L24.7269 26.2628L24.6887 26.3111L24.65 26.359L24.6107 26.4065L24.5709 26.4538L24.5305 26.5007L24.4895 26.5472L24.4481 26.5934L24.4061 26.6393L24.3635 26.6848L24.3205 26.7299L24.2769 26.7747L24.2328 26.8191L24.1882 26.863L24.1431 26.9066L24.0974 26.9498L24.0512 26.9925L24.0045 27.0349L23.9574 27.0769L23.9097 27.1184L23.8615 27.1595L23.8129 27.2002L23.7637 27.2404L23.7141 27.2802L23.664 27.3195L23.6134 27.3584L23.5624 27.3969L23.5109 27.4349L23.459 27.4723L23.4065 27.5093L23.3537 27.546L23.3004 27.582L23.2466 27.6176L23.1924 27.6526L23.1378 27.6872L23.0827 27.7213L23.0273 27.7549L22.9714 27.7879L22.9151 27.8204L22.8584 27.8524L22.8012 27.8839L22.7437 27.9149L22.6858 27.9452L22.6275 27.9752L22.5688 28.0044L22.5098 28.0332L22.4504 28.0614L22.3905 28.0891L22.3305 28.1162L22.2699 28.1426L22.2091 28.1686L22.1479 28.194L22.0864 28.2187L22.0245 28.2429L21.9623 28.2665L21.8997 28.2895L21.8369 28.312L21.7738 28.3338L21.7104 28.355L21.6466 28.3756L21.5826 28.3955L21.5184 28.4149L21.4537 28.4337L21.3889 28.4518L21.3238 28.4693L21.2584 28.4862L21.1928 28.5024L21.1269 28.518L21.0608 28.533L20.9944 28.5472L20.9279 28.561L20.8611 28.574L20.7941 28.5863L20.7269 28.5981L20.6595 28.6092L20.5919 28.6195L20.5241 28.6292L20.4562 28.6383L20.388 28.6468L20.3197 28.6545L20.2513 28.6615L20.1826 28.668L20.1139 28.6736L20.045 28.6787L19.9759 28.683L19.9068 28.6867L19.8375 28.6897L19.7682 28.692L19.6986 28.6935L19.6291 28.6944L19.5595 28.6947L19.4897 28.6942L19.4199 28.6931L19.35 28.6912L19.2801 28.6886L19.2101 28.6853L19.14 28.6813L19.0699 28.6767L18.9998 28.6713L18.9297 28.6652L18.8595 28.6584L18.7894 28.651L18.7193 28.6427L18.6492 28.6338L18.579 28.6242L18.5089 28.6139L18.4388 28.6028L18.3688 28.5911L18.2988 28.5786L18.2289 28.5654L18.159 28.5516L18.0892 28.537L18.0194 28.5217L17.9498 28.5056L17.8803 28.4889L17.8107 28.4715L17.7414 28.4533L17.6722 28.4344L17.603 28.4149L17.5341 28.3946L17.4652 28.3736L17.3965 28.3519L17.3279 28.3295L17.2594 28.3064L17.1913 28.2826L17.1232 28.2581L17.0553 28.2328L16.9876 28.2069L16.9201 28.1802L16.8528 28.1529L16.7857 28.1249L16.7189 28.0962L16.6523 28.0667L16.5858 28.0366L16.5197 28.0058L16.4537 27.9742L16.3881 27.9421L16.3227 27.9092L16.2576 27.8756L16.1928 27.8413L16.1283 27.8064L16.064 27.7708L16.0001 27.7345L15.9364 27.6975L15.8731 27.6599L15.8101 27.6216L15.7474 27.5826L15.6851 27.543L15.6231 27.5027L15.5614 27.4617L15.5002 27.4201L15.4394 27.3778L15.3788 27.3349L15.3186 27.2913L15.2589 27.2471L15.1995 27.2022L15.1406 27.1568L15.0821 27.1106L15.024 27.0639L14.9663 27.0165L14.909 26.9685L14.8522 26.9199L14.7958 26.8706L14.7399 26.8208L14.6845 26.7703L14.6294 26.7192L14.5749 26.6676L14.5209 26.6153L14.4673 26.5625L14.4143 26.5091L14.3617 26.4551L14.3096 26.4004L14.2581 26.3453L14.2071 26.2895L14.1566 26.2332L14.1066 26.1764L14.0573 26.119L14.0084 26.0611L13.96 26.0025L13.9123 25.9434L13.8651 25.8839L13.8184 25.8238L13.7724 25.7632L13.7269 25.702L13.6821 25.6403L13.6378 25.5781L13.5941 25.5154L13.551 25.4522L13.5085 25.3886L13.4667 25.3244L13.4255 25.2598L13.3849 25.1947L13.345 25.1292L13.3056 25.0631L13.267 24.9966L13.229 24.9296L13.1916 24.8622L13.1549 24.7944L13.1189 24.7262L13.0835 24.6574L13.0488 24.5883L13.0148 24.5189L12.9815 24.4489L12.9489 24.3786L12.917 24.3079L12.8858 24.2368L12.8553 24.1652L12.8254 24.0934L12.7964 24.0212L12.768 23.9486L12.7404 23.8756L12.7135 23.8023L12.6874 23.7287L12.6619 23.6548L12.6372 23.5805L12.6133 23.5059L12.5901 23.431L12.5676 23.3558L12.5459 23.2802L12.525 23.2044L12.5049 23.1283L12.4854 23.052L12.4669 22.9753L12.4491 22.8985L12.432 22.8213L12.4157 22.744L12.4003 22.6663L12.3855 22.5885L12.3716 22.5104L12.3585 22.4321L12.3463 22.3537L12.3347 22.275L12.324 22.1961L12.3142 22.1171L12.3051 22.0379L12.2968 21.9584L12.2894 21.8789L12.2827 21.7992L12.2769 21.7193L12.2719 21.6393L12.2677 21.5592L12.2644 21.4791L12.2618 21.3987L12.2602 21.3182L12.2594 21.2378L12.2593 21.1572L12.2601 21.0764L12.2618 20.9957L12.2643 20.9149L12.2676 20.834L12.2718 20.7531L12.2768 20.6722L12.2826 20.5912L12.2894 20.5102L12.2969 20.4292L12.3053 20.3482L12.3145 20.2671L12.3246 20.1861L12.3355 20.1052L12.3474 20.0243L12.36 19.9434L12.3735 19.8626L12.3878 19.7818L12.403 19.7011L12.4191 19.6204L12.436 19.5399L12.4537 19.4594L12.4723 19.3791L12.4917 19.2989L12.512 19.2187L12.5332 19.1387L12.5552 19.0589L12.578 18.9791L12.6016 18.8995L12.6262 18.8202L12.6515 18.7409L12.6777 18.6618L12.7048 18.583L12.7327 18.5042L12.7614 18.4258L12.791 18.3475L12.8214 18.2695L12.8527 18.1917L12.8848 18.1141L12.9177 18.0368L12.9514 17.9597L12.9861 17.8829L13.0214 17.8063L13.0577 17.7301L13.0947 17.6541L13.1326 17.5784L13.1713 17.5031L13.2108 17.4281L13.2511 17.3533L13.2923 17.279L13.3342 17.2049L13.3769 17.1312L13.4204 17.0579L13.4648 16.9849L13.5099 16.9122L13.5559 16.8401L13.6026 16.7681L13.6501 16.6967L13.6984 16.6257L13.7474 16.5551L13.7973 16.4849L13.8479 16.4151L13.8993 16.3458L13.9514 16.2769L14.0043 16.2085L14.0579 16.1405L14.1124 16.0731L14.1675 16.006L14.2234 15.9395L14.28 15.8734L14.3374 15.8079L14.3954 15.7429L14.4543 15.6783L14.5138 15.6144L14.5741 15.551L14.6351 15.4881L14.6967 15.4257L14.7591 15.3639L14.8222 15.3026L14.8859 15.242L14.9504 15.1819L15.0154 15.1223L15.0812 15.0634L15.1476 15.0051L15.2148 14.9474L15.2825 14.8902L15.351 14.8338L15.42 14.778L15.4897 14.7227L15.56 14.6681L15.631 14.6142L15.7025 14.561L15.7747 14.5083L15.8475 14.4564L15.9209 14.4051L15.9949 14.3545L16.0695 14.3046L16.1446 14.2554L16.2204 14.207L16.2967 14.1591L16.3735 14.1121L16.451 14.0657L16.5289 14.0201L16.6074 13.9752L16.6865 13.931L16.766 13.8875L16.8461 13.8449L16.9266 13.803L17.0077 13.7618L17.0893 13.7214L17.1714 13.6818L17.2539 13.643L17.3369 13.6049L17.4204 13.5676L17.5043 13.5311L17.5887 13.4954L17.6735 13.4605L17.7587 13.4265L17.8444 13.3932L17.9305 13.3608L18.017 13.3292L18.1039 13.2984L18.1913 13.2684L18.2789 13.2393L18.367 13.2111L18.4554 13.1836L18.5442 13.1571L18.6333 13.1313L18.7227 13.1065L18.8125 13.0825L18.9026 13.0593L18.9931 13.0371L19.0838 13.0157L19.1749 12.9952L19.2662 12.9756L19.3578 12.9569L19.4496 12.9391L19.4957 12.9305ZM20.6247 19.5308L19.5769 19.7812L19.5154 14.5907L19.466 14.6018L19.3916 14.6193L19.3174 14.6376L19.2436 14.6565L19.17 14.6762L19.0968 14.6965L19.0236 14.7177L18.9512 14.7393L18.8785 14.7619L18.8068 14.7849L18.7349 14.8088L18.6635 14.8333L18.5924 14.8585L18.5215 14.8843L18.4514 14.9108L18.3813 14.9381L18.3115 14.9659L18.2423 14.9943L18.1731 15.0236L18.1048 15.0532L18.0365 15.0838L17.9689 15.1148L17.9014 15.1466L17.8344 15.1789L17.7677 15.2119L17.7017 15.2454L17.636 15.2796L17.5707 15.3144L17.5059 15.3498L17.4415 15.3858L17.3774 15.4224L17.3142 15.4595L17.2508 15.4974L17.1883 15.5357L17.1263 15.5746L17.0646 15.6141L17.0034 15.6542L16.9427 15.6948L16.8825 15.736L16.8228 15.7776L16.7637 15.8198L16.7049 15.8626L16.6467 15.906L16.5891 15.9498L16.5319 15.9942L16.4754 16.0389L16.4194 16.0842L16.3637 16.1301L16.3086 16.1766L16.2543 16.2233L16.2004 16.2707L16.147 16.3184L16.0942 16.3667L16.0419 16.4155L15.9903 16.4647L15.9392 16.5142L15.8885 16.5644L15.8386 16.6149L15.7893 16.6659L15.7405 16.7172L15.6922 16.7691L15.6446 16.8212L15.5976 16.8739L15.5512 16.927L15.5054 16.9802L15.4602 17.0342L15.4157 17.0882L15.3716 17.1429L15.3284 17.1977L15.2855 17.2531L15.2434 17.3088L15.202 17.3647L15.1611 17.421L15.1209 17.4776L15.0813 17.5347L15.0423 17.592L15.004 17.6497L14.9664 17.7075L14.9294 17.7657L14.8929 17.8243L14.8573 17.8831L14.8221 17.9423L14.7877 18.0015L14.7539 18.0612L14.7207 18.1212L14.6884 18.1812L14.6565 18.2416L14.6254 18.3022L14.5949 18.3632L14.5652 18.4241L14.536 18.4856L14.5075 18.5471L14.4798 18.6088L14.4526 18.6707L14.4262 18.7329L14.4004 18.7951L14.3754 18.8576L14.351 18.9202L14.3272 18.9831L14.3042 19.0459L14.2818 19.1091L14.2601 19.1723L14.2391 19.2357L14.2187 19.2992L14.1991 19.3629L14.1801 19.4266L14.1619 19.4903L14.1443 19.5543L14.1273 19.6184L14.1111 19.6825L14.0955 19.7467L14.0806 19.811L14.0664 19.8753L14.053 19.9398L14.0402 20.0042L14.028 20.0686L14.0165 20.1332L14.0058 20.1977L13.9957 20.2622L13.9863 20.327L13.9775 20.3914L13.9695 20.4562L13.9622 20.5206L13.9554 20.5852L13.9494 20.65L13.9441 20.7144L13.9394 20.779L13.9354 20.8435L13.9321 20.9079L13.9294 20.9722L13.9274 21.0365L13.9262 21.1009L13.9254 21.1651L13.9255 21.2292L13.9262 21.2931L13.9275 21.3572L13.9295 21.421L13.9322 21.4847L13.9354 21.5483L13.9394 21.6118L13.9441 21.6752L13.9494 21.7384L13.9553 21.8015L13.9618 21.8646L13.969 21.9272L13.9768 21.9901L13.9853 22.0524L13.9944 22.1149L14.0042 22.177L14.0145 22.239L14.0255 22.3009L14.0372 22.3624L14.0494 22.4239L14.0623 22.485L14.0758 22.5461L14.0899 22.6068L14.1046 22.6674L14.1199 22.7276L14.1359 22.7879L14.1524 22.8476L14.1694 22.9073L14.1872 22.9666L14.2055 23.0258L14.2244 23.0846L14.2438 23.1431L14.2639 23.2015L14.2845 23.2595L14.3057 23.3172L14.3274 23.3747L14.3498 23.4319L14.3727 23.4887L14.3962 23.5452L14.4201 23.6014L14.4447 23.6574L14.4698 23.7131L14.4954 23.7683L14.5216 23.8232L14.5483 23.8778L14.5756 23.9322L14.6033 23.9861L14.6315 24.0396L14.6604 24.0929L14.6897 24.1457L14.7195 24.1982L14.7498 24.2504L14.7806 24.3021L14.812 24.3535L14.8437 24.4045L14.876 24.4551L14.9088 24.5053L14.942 24.5552L14.9757 24.6047L15.0098 24.6535L15.0444 24.7022L15.0795 24.7504L15.115 24.7982L15.1511 24.8456L15.1874 24.8925L15.2243 24.939L15.2615 24.9851L15.2993 25.0308L15.3373 25.0759L15.3759 25.1207L15.4148 25.1651L15.4541 25.2089L15.494 25.2523L15.534 25.2952L15.5745 25.3378L15.6154 25.3798L15.6566 25.4213L15.6984 25.4624L15.7404 25.5031L15.7827 25.5432L15.8254 25.5829L15.8685 25.6221L15.912 25.6608L15.9557 25.699L15.9998 25.7367L16.0442 25.774L16.0889 25.8107L16.134 25.847L16.1794 25.8827L16.225 25.9179L16.271 25.9526L16.3173 25.9869L16.3638 26.0206L16.4106 26.0538L16.4577 26.0865L16.5051 26.1187L16.5527 26.1503L16.6005 26.1814L16.6486 26.2121L16.6972 26.2422L16.7457 26.2717L16.7945 26.3008L16.8437 26.3293L16.8929 26.3572L16.9424 26.3847L16.9923 26.4117L17.0422 26.4381L17.0923 26.4639L17.1425 26.4892L17.1932 26.514L17.2437 26.5382L17.2947 26.5619L17.3457 26.5851L17.3968 26.6076L17.4483 26.6297L17.4998 26.6512L17.5514 26.6722L17.6032 26.6927L17.6551 26.7125L17.7073 26.7319L17.7593 26.7507L17.8117 26.769L17.864 26.7866L17.9164 26.8038L17.9691 26.8204L18.0218 26.8365L18.0745 26.852L18.1274 26.867L18.1804 26.8813L18.2334 26.8952L18.2864 26.9085L18.3395 26.9213L18.3925 26.9335L18.4457 26.9452L18.499 26.9563L18.5523 26.9669L18.6055 26.977L18.6588 26.9864L18.7122 26.9954L18.7655 27.0038L18.8189 27.0117L18.8721 27.019L18.9254 27.0257L18.9787 27.032L19.0321 27.0377L19.0854 27.0428L19.1386 27.0474L19.1918 27.0515L19.2449 27.0551L19.2981 27.0581L19.3511 27.0605L19.404 27.0625L19.4571 27.0639L19.5098 27.0648L19.5625 27.0652L19.6153 27.065L19.6678 27.0643L19.7204 27.0631L19.7729 27.0613L19.8251 27.0592L19.8773 27.0563L19.9295 27.0531L19.9814 27.0492L20.0333 27.045L20.0849 27.0401L20.1365 27.0349L20.188 27.029L20.2392 27.0227L20.2904 27.0159L20.3414 27.0085L20.3921 27.0007L20.4429 26.9924L20.4934 26.9836L20.5436 26.9743L20.5938 26.9645L20.6438 26.9542L20.6934 26.9435L20.7429 26.9323L20.7924 26.9206L20.8415 26.9084L20.8904 26.8959L20.9392 26.8828L20.9876 26.8692L21.0361 26.8552L21.0841 26.8407L21.1317 26.8258L21.1795 26.8103L21.2268 26.7945L21.2739 26.7783L21.3207 26.7616L21.3673 26.7444L21.4137 26.7268L21.4598 26.7088L21.5055 26.6903L21.5511 26.6715L21.5964 26.6522L21.6414 26.6324L21.686 26.6123L21.7305 26.5918L21.7746 26.5709L21.8184 26.5495L21.862 26.5278L21.9051 26.5057L21.9481 26.4832L21.9907 26.4602L22.033 26.4369L22.0749 26.4132L22.1166 26.3892L22.158 26.3647L22.1989 26.3399L22.2395 26.3147L22.2799 26.2892L22.3199 26.2633L22.3596 26.2371L22.3989 26.2105L22.4379 26.1835L22.4765 26.1562L22.5147 26.1287L22.5526 26.1007L22.5902 26.0724L22.6274 26.0438L22.6642 26.0149L22.7007 25.9856L22.7367 25.9562L22.7724 25.9263L22.8077 25.8962L22.8426 25.8657L22.8773 25.835L22.9114 25.8039L22.9453 25.7726L22.9785 25.7411L23.0116 25.7092L23.0443 25.677L23.0765 25.6446L23.1084 25.612L23.1397 25.579L23.1707 25.5459L23.2015 25.5123L23.2315 25.4788L23.2614 25.4448L23.2908 25.4106L23.3197 25.3763L23.3484 25.3416L23.3764 25.3069L23.4043 25.2718L23.4316 25.2366L23.4585 25.2012L23.485 25.1654L23.511 25.1297L23.5366 25.0935L23.5619 25.0572L23.5866 25.021L23.611 24.9842L23.635 24.9475L23.6584 24.9106L23.6814 24.8735L23.7041 24.8362L23.7263 24.7988L23.7481 24.7612L23.7694 24.7235L23.7903 24.6857L23.8107 24.6476L23.8307 24.6096L23.8503 24.5713L23.8694 24.533L23.8882 24.4945L23.9065 24.4558L23.9243 24.4172L23.9416 24.3783L23.9585 24.3395L23.9751 24.3004L23.9911 24.2614L24.0068 24.2221L24.0219 24.1831L24.0367 24.1434L24.0509 24.1044L24.0648 24.0648L24.0783 24.0252L24.0912 23.9857L24.1037 23.9461L24.1158 23.9065L24.1275 23.8665L24.1386 23.8271L24.1495 23.787L24.1598 23.7475L24.1697 23.7075L24.1792 23.6675L24.1882 23.6278L24.1967 23.5882L24.2049 23.548L24.2126 23.5082L24.2199 23.4682L24.2267 23.4285L24.2332 23.3887L24.2392 23.3488L24.2447 23.3089L24.2498 23.2691L24.2545 23.2294L24.2588 23.1899L24.2626 23.15L24.2661 23.1104L24.2691 23.0708L24.2716 23.0312L24.2738 22.9918L24.2755 22.9524L24.2768 22.9132L24.2777 22.8738L24.2783 22.8344L24.2784 22.7954L24.278 22.7564L24.2773 22.7175L24.2761 22.6787L24.2745 22.6397L24.2725 22.6014L24.2702 22.5623L24.2675 22.5242L24.2643 22.486L24.2607 22.4474L24.2567 22.4093L24.2524 22.3716L24.2476 22.3333L24.2425 22.2959L24.237 22.2582L24.2312 22.221L24.2248 22.1834L24.2182 22.1462L24.2112 22.1092L24.2038 22.0724L24.196 22.0355L24.1878 21.9991L24.1794 21.9626L24.1705 21.9264L24.1613 21.8905L24.1515 21.8543L24.1417 21.8189L24.1314 21.7831L24.1207 21.7479L24.1097 21.7127L24.0984 21.6778L24.0866 21.643L24.0745 21.6082L24.0623 21.5741L24.0495 21.54L24.0364 21.5058L24.0231 21.4722L24.0094 21.4383L23.9955 21.4053L23.981 21.372L23.9664 21.3392L23.9514 21.3066L23.9362 21.2741L23.9206 21.2419L23.9047 21.2099L23.8885 21.1781L23.8721 21.1466L23.8553 21.1153L23.8383 21.0843L23.8209 21.0535L23.8032 21.023L23.7854 20.9927L23.7672 20.9627L23.7486 20.9328L23.7299 20.9034L23.7109 20.8742L23.6916 20.8451L23.6721 20.8163L23.6524 20.788L23.6323 20.7597L23.612 20.7318L23.5914 20.7042L23.5706 20.6768L23.5497 20.6497L23.5284 20.6228L23.5069 20.5963L23.4852 20.5701L23.4633 20.5441L23.4411 20.5183L23.4188 20.493L23.3962 20.4679L23.3734 20.4431L23.3504 20.4184L23.3272 20.3942L23.3037 20.3703L23.2801 20.3466L23.2564 20.3233L23.2324 20.3003L23.2083 20.2776L23.1837 20.2551L23.1594 20.233L23.1346 20.2111L23.1098 20.1896L23.0847 20.1683L23.0595 20.1475L23.0342 20.1269L23.0087 20.1066L22.9831 20.0866L22.9573 20.0669L22.9314 20.0476L22.9053 20.0285L22.879 20.0098L22.8527 19.9914L22.8263 19.9732L22.7997 19.9555L22.773 19.9381L22.7461 19.9209L22.7193 19.9041L22.6921 19.8875L22.665 19.8713L22.6378 19.8555L22.6104 19.84L22.5829 19.8247L22.5555 19.8098L22.5279 19.7952L22.5002 19.7809L22.4725 19.767L22.4445 19.7532L22.4167 19.74L22.3887 19.7271L22.3607 19.7143L22.3326 19.702L22.3044 19.6899L22.2764 19.6782L22.248 19.6669L22.2196 19.6558L22.1914 19.6451L22.163 19.6346L22.1346 19.6245L22.1062 19.6147L22.0777 19.6052L22.0494 19.5961L22.0208 19.5872L21.9923 19.5786L21.9639 19.5704L21.9352 19.5625L21.9068 19.555L21.8783 19.5477L21.8497 19.5407L21.8212 19.5341L21.7927 19.5277L21.7642 19.5217L21.7357 19.516L21.7074 19.5105L21.679 19.5054L21.6504 19.5006L21.6223 19.4962L21.5937 19.492L21.5656 19.4881L21.5373 19.4844L21.5091 19.4811L21.4811 19.4781L21.4529 19.4755L21.4249 19.4731L21.3969 19.471L21.369 19.4691L21.3411 19.4676L21.3133 19.4664L21.2857 19.4655L21.258 19.4648L21.2304 19.4644L21.2029 19.4643L21.1755 19.4646L21.1482 19.4651L21.121 19.4658L21.0938 19.4669L21.0669 19.4682L21.0398 19.4698L21.0131 19.4716L20.9864 19.4737L20.9597 19.4761L20.9333 19.4788L20.9067 19.4817L20.8805 19.4849L20.8544 19.4883L20.8284 19.4921L20.8024 19.4961L20.7766 19.5002L20.7509 19.5047L20.7255 19.5094L20.7 19.5144L20.6748 19.5196L20.6496 19.5251L20.6247 19.5308Z" fill="#2B2B2B"/>
</svg>
