<svg width="40" height="41" viewBox="0 0 40 41" fill="none" xmlns="http://www.w3.org/2000/svg">
<path d="M16.6667 12.3825L15.8067 14.7059C14.68 17.7525 14.1167 19.2759 13.005 20.3875C11.8933 21.4992 10.37 22.0625 7.32333 23.1892L5 24.0492L7.32333 24.9092C10.37 26.0359 11.8933 26.6009 13.005 27.7109C14.1167 28.8209 14.68 30.3459 15.8067 33.3925L16.6667 35.7159L17.5267 33.3925C18.6533 30.3459 19.2183 28.8225 20.3283 27.7109C21.4383 26.5992 22.9633 26.0359 26.01 24.9092L28.3333 24.0492L26.01 23.1892C22.9633 22.0625 21.44 21.4992 20.3283 20.3875C19.2167 19.2759 18.6533 17.7525 17.5267 14.7059L16.6667 12.3825ZM30 5.71588L29.6317 6.71088C29.1483 8.01755 28.9067 8.67088 28.4317 9.14588C27.955 9.62255 27.3017 9.86421 25.995 10.3459L25 10.7159L25.9967 11.0842C27.3017 11.5675 27.955 11.8092 28.43 12.2842C28.9067 12.7609 29.1483 13.4142 29.63 14.7209L30 15.7159L30.3683 14.7209C30.8517 13.4142 31.0933 12.7609 31.5683 12.2859C32.045 11.8092 32.6983 11.5675 34.005 11.0859L35 10.7159L34.0033 10.3475C32.6983 9.86421 32.045 9.62255 31.57 9.14755C31.0933 8.67088 30.8517 8.01755 30.37 6.71088L30 5.71588Z" stroke="#2B2B2B" stroke-width="1.5" stroke-linecap="round" stroke-linejoin="round"/>
</svg>
