<svg width="40" height="41" viewBox="0 0 40 41" fill="none" xmlns="http://www.w3.org/2000/svg">
<path d="M19.9998 20.7159V30.7159M19.9998 20.7159C26.4431 20.7159 31.6664 15.5209 31.6664 9.11253C31.6664 8.94586 31.6631 8.77919 31.6564 8.61253C31.5848 6.94586 31.5498 6.11253 30.4198 5.08086C29.2898 4.04919 28.0414 4.04919 25.5398 4.04919H14.4598C11.9598 4.04919 10.7081 4.04919 9.57977 5.08253C8.45144 6.11253 8.41477 6.94586 8.34311 8.61086C8.33644 8.77753 8.33311 8.94475 8.33311 9.11253C8.33311 15.5209 13.5564 20.7159 19.9998 20.7159ZM19.9998 30.7159C17.2098 30.7159 14.7831 32.4025 13.5298 34.8909C12.9298 36.0792 13.7898 37.3825 14.9298 37.3825H25.0681C26.2098 37.3825 27.0681 36.0792 26.4698 34.8909C25.2164 32.4025 22.7898 30.7159 19.9998 30.7159ZM8.33311 9.04919H6.64144C4.99644 9.04919 4.17477 9.04919 3.66644 9.66586C3.15811 10.2842 3.30811 10.9759 3.60644 12.3592C4.17311 14.9992 5.40811 17.3209 7.08144 19.0492M31.6664 9.04919H33.3581C35.0031 9.04919 35.8248 9.04919 36.3331 9.66586C36.8414 10.2842 36.6914 10.9759 36.3948 12.3592C35.8248 14.9992 34.5914 17.3209 32.9164 19.0492" stroke="#EFE6FD" stroke-width="1.5" stroke-linecap="round" stroke-linejoin="round"/>
</svg>
