<svg width="69" height="70" viewBox="0 0 69 70" fill="none" xmlns="http://www.w3.org/2000/svg">
<g clip-path="url(#clip0_67_968)">
<path d="M55.773 30.5028C54.6478 29.3775 53.1124 28.7547 51.5045 28.7713C49.8966 28.7879 48.348 29.4425 47.1993 30.5911L29.8752 47.9153C28.7266 49.0639 28.0719 50.6125 28.0554 52.2204C28.0388 53.8283 28.6616 55.3637 29.7868 56.4889C30.9121 57.6142 32.4475 58.237 34.0554 58.2204C35.6632 58.2038 37.2119 57.5492 38.3605 56.4005C39.5092 55.2519 40.1638 53.7033 40.1804 52.0954C40.1969 50.4875 39.5741 48.9521 38.4489 47.8269L21.4783 30.8563C20.3531 29.7311 18.8177 29.1083 17.2098 29.1248C15.6019 29.1414 14.0533 29.796 12.9047 30.9447C11.756 32.0934 11.1014 33.642 11.0848 35.2498C11.0682 36.8577 11.6911 38.3932 12.8163 39.5184C13.9415 40.6436 15.4769 41.2664 17.0848 41.2498C18.6927 41.2333 20.2413 40.5786 21.3899 39.43L38.7141 22.1059C39.8627 20.9572 40.5174 19.4086 40.5339 17.8007C40.5505 16.1928 39.9277 14.6574 38.8025 13.5322C37.6772 12.407 36.1418 11.7841 34.5339 11.8007C32.9261 11.8173 31.3774 12.4719 30.2288 13.6206C29.0801 14.7692 28.4255 16.3178 28.4089 17.9257C28.3923 19.5336 29.0152 21.069 30.1404 22.1943L47.111 39.1648C48.2362 40.29 49.7716 40.9129 51.3795 40.8963C52.9874 40.8797 54.536 40.2251 55.6846 39.0764C56.8333 37.9278 57.4879 36.3792 57.5045 34.7713C57.5211 33.1634 56.8982 31.628 55.773 30.5028Z" stroke="#FCFCFC" stroke-width="2" stroke-linecap="round" stroke-linejoin="round"/>
</g>
<defs>
<clipPath id="clip0_67_968">
<rect width="48" height="49" fill="white" transform="translate(34.6482 0.715881) rotate(45)"/>
</clipPath>
</defs>
</svg>
