<svg width="40" height="41" viewBox="0 0 40 41" fill="none" xmlns="http://www.w3.org/2000/svg">
<path d="M16.666 21.2709C16.666 20.7543 16.666 20.4959 16.7227 20.2843C16.7984 20.0017 16.9472 19.7441 17.154 19.5372C17.3608 19.3304 17.6185 19.1817 17.901 19.1059C18.1127 19.0493 18.371 19.0493 18.8877 19.0493H21.111C21.6277 19.0493 21.886 19.0493 22.0977 19.1059C22.3802 19.1817 22.6379 19.3304 22.8447 19.5372C23.0515 19.7441 23.2003 20.0017 23.276 20.2843C23.3327 20.4959 23.3327 20.7543 23.3327 21.2709V22.3826C23.3327 23.2666 22.9815 24.1145 22.3564 24.7396C21.7313 25.3647 20.8834 25.7159 19.9993 25.7159C19.1153 25.7159 18.2674 25.3647 17.6423 24.7396C17.0172 24.1145 16.666 23.2666 16.666 22.3826V21.2709Z" stroke="#2B2B2B" stroke-width="1.5" stroke-linecap="round" stroke-linejoin="round"/>
<path d="M23.0031 22.3825C23.5214 22.2325 24.1114 22.0492 24.7998 21.8375L31.7514 19.6942C34.2264 18.9309 35.4364 17.6009 35.7014 15.2992C35.8181 14.2692 35.8764 13.7542 35.7948 13.3325C35.5581 12.1309 34.5481 11.1559 33.2014 10.8292C32.7298 10.7159 32.1381 10.7159 30.9531 10.7159H9.04644C7.86144 10.7159 7.26977 10.7159 6.79644 10.8292C5.45144 11.1559 4.44144 12.1292 4.20477 13.3325C4.12144 13.7542 4.18144 14.2692 4.29977 15.2992C4.5631 17.6009 5.7731 18.9309 8.2481 19.6942L15.1998 21.8375C15.7972 22.0239 16.3961 22.2056 16.9964 22.3825" stroke="#2B2B2B" stroke-width="1.5" stroke-linecap="round" stroke-linejoin="round"/>
<path d="M5.7714 19.0492L5.44473 22.6692C4.85807 29.1592 4.56473 32.4042 6.44473 34.4776C8.32473 36.5509 11.5664 36.5492 18.0397 36.5492H21.9597C28.4347 36.5492 31.6731 36.5492 33.5547 34.4776C35.4364 32.4059 35.1414 29.1609 34.5547 22.6692L34.2281 19.0492M25.8331 9.88257L25.7047 9.4409C25.0631 7.2409 24.7414 6.1409 23.9781 5.51257C23.2147 4.88424 22.1997 4.88257 20.1697 4.88257H19.8297C17.7997 4.88257 16.7847 4.88257 16.0214 5.51257C15.2581 6.1409 14.9381 7.2409 14.2947 9.4409L14.1664 9.88257" stroke="#2B2B2B" stroke-width="1.5" stroke-linecap="round" stroke-linejoin="round"/>
</svg>
