<svg width="40" height="41" viewBox="0 0 40 41" fill="none" xmlns="http://www.w3.org/2000/svg">
<path d="M11 20.5876C19.455 4.83091 29.9833 4.64924 34.1883 6.52758C36.0667 10.7342 35.885 21.2609 20.1283 29.7159C19.965 28.7759 19.0567 26.3159 16.7283 23.9876C14.4 21.6592 11.94 20.7509 11 20.5876Z" stroke="#2B2B2B" stroke-width="1.5" stroke-linecap="round" stroke-linejoin="round"/>
<path d="M22.25 28.9659C25.315 30.4659 25.6417 33.1559 26.0667 35.7159C26.0667 35.7159 32.4833 30.9726 28.3783 24.4659M11.75 18.5942C10.25 15.5292 7.56 15.2026 5 14.7776C5 14.7776 9.745 8.3609 16.25 12.4659M10.03 25.5692C9.17667 26.4209 7.72667 28.8959 8.75 31.9659C11.8217 32.9892 14.295 31.5392 15.15 30.6876M28.8333 14.7992C28.8333 14.0257 28.526 13.2838 27.9791 12.7368C27.4321 12.1899 26.6902 11.8826 25.9167 11.8826C25.1431 11.8826 24.4013 12.1899 23.8543 12.7368C23.3073 13.2838 23 14.0257 23 14.7992C23 15.5728 23.3073 16.3146 23.8543 16.8616C24.4013 17.4086 25.1431 17.7159 25.9167 17.7159C26.6902 17.7159 27.4321 17.4086 27.9791 16.8616C28.526 16.3146 28.8333 15.5728 28.8333 14.7992Z" stroke="#2B2B2B" stroke-width="1.5" stroke-linecap="round" stroke-linejoin="round"/>
</svg>
