<svg width="46" height="46" viewBox="0 0 46 46" fill="none" xmlns="http://www.w3.org/2000/svg">
<rect x="0.514771" y="0.742222" width="44.9704" height="44.9704" rx="8.99408" fill="#2B2B2B"/>
<path d="M25.2485 11.9848H16.2544C15.6581 11.9848 15.0862 12.2217 14.6645 12.6434C14.2428 13.0651 14.0059 13.637 14.0059 14.2333V32.2215C14.0059 32.8179 14.2428 33.3898 14.6645 33.8115C15.0862 34.2331 15.6581 34.47 16.2544 34.47H29.7456C30.3419 34.47 30.9138 34.2331 31.3355 33.8115C31.7572 33.3898 31.9941 32.8179 31.9941 32.2215V18.7304L25.2485 11.9848Z" stroke="#FCFCFC" stroke-width="1.5" stroke-linecap="round" stroke-linejoin="round"/>
<path d="M25.2485 11.9848V18.7304H31.994" stroke="#FCFCFC" stroke-width="1.5" stroke-linecap="round" stroke-linejoin="round"/>
<path d="M27.497 24.3517H18.5029" stroke="#FCFCFC" stroke-width="1.5" stroke-linecap="round" stroke-linejoin="round"/>
<path d="M27.497 28.8487H18.5029" stroke="#FCFCFC" stroke-width="1.5" stroke-linecap="round" stroke-linejoin="round"/>
<path d="M20.7514 19.8546H19.6272H18.5029" stroke="#FCFCFC" stroke-width="1.5" stroke-linecap="round" stroke-linejoin="round"/>
</svg>
